<?xml version="1.0" standalone="no"?>
<!DOCTYPE svg PUBLIC "-//W3C//DTD SVG 1.1//EN" "http://www.w3.org/Graphics/SVG/1.1/DTD/svg11.dtd" >
<svg xmlns="http://www.w3.org/2000/svg" xmlns:xlink="http://www.w3.org/1999/xlink" version="1.1">
<metadata>
Created by FontForge 20170731 at Sun Jul 12 20:57:23 2020
 By Aleksey,,,
Copyright (c) 2016 by Cristina Pagnotta. All rights reserved.
</metadata>
<defs>
<font id="Audrey-MediumOblique" horiz-adv-x="2048" >
  <font-face 
    font-family="Audrey Med"
    font-weight="500"
    font-style="oblique"
    font-stretch="normal"
    units-per-em="2048"
    panose-1="0 0 0 0 0 0 0 0 0 0"
    ascent="1423"
    descent="-625"
    x-height="723"
    cap-height="1499"
    bbox="-43 -567 2701 1829"
    underline-thickness="102"
    underline-position="-307"
    unicode-range="U+0009-FB02"
  />
<missing-glyph 
 />
    <glyph glyph-name=".notdef" 
 />
    <glyph glyph-name=".null" horiz-adv-x="0" 
 />
    <glyph glyph-name="nonmarkingreturn" horiz-adv-x="682" 
 />
    <glyph glyph-name="HT" unicode="&#x9;" 
 />
    <glyph glyph-name="LF" unicode="&#xa;" 
 />
    <glyph glyph-name="CR" unicode="&#xd;" 
 />
    <glyph glyph-name="DLE" 
 />
    <glyph glyph-name="DC1" 
 />
    <glyph glyph-name="DC2" 
 />
    <glyph glyph-name="DC3" 
 />
    <glyph glyph-name="DC4" 
 />
    <glyph glyph-name="RS" 
 />
    <glyph glyph-name="US" 
 />
    <glyph glyph-name="space" unicode=" " horiz-adv-x="540" 
 />
    <glyph glyph-name="exclam" unicode="!" horiz-adv-x="636" 
d="M397 -25q-46 -38 -104 -38q-60 0 -90 40q-31 42 -19 97q12 57 62 98q48 39 104 39q61 0 90 -39q30 -40 21 -98q-12 -57 -64 -99zM659 1137l-227 -768h-92l100 768q14 116 39 288h262q-18 -64 -48 -169.5t-34 -118.5z" />
    <glyph glyph-name="quotedbl" unicode="&#x22;" horiz-adv-x="1232" 
d="M850 1477l-408 -666h-125l347 666h186zM1364 1477l-408 -666h-125l347 666h186z" />
    <glyph glyph-name="numbersign" unicode="#" horiz-adv-x="1566" 
d="M1538 516l-94 -172h-1245l71 119zM1233 1405l-883 -1479h-125l826 1479h182zM1769 1405l-882 -1479h-125l825 1479h182zM1749 1001l-94 -170h-1245l71 117z" />
    <glyph glyph-name="dollar" unicode="$" horiz-adv-x="901" 
d="M608 -12l88 407q-45 36 -88 62q-7 4 -24 15t-25 17l-108 -503q13 -5 32 -9q65 -9 125 11zM782 307l-53 -246q45 45 64 103q27 81 -11 143zM539 889l28 135q-9 -13 -22 -47q-15 -46 -6 -88zM756 678l90 424q-30 15 -66 18q-48 5 -90 -4l-69 -336q38 -38 114 -88zM795 -47
q-45 -28 -99 -47l-26 -119h-103l19 94q-67 -7 -117 0q-21 0 -39 6l-22 -100h-103l29 137q-133 73 -187 207l86 76q62 -132 123 -178l113 526q-16 13 -47 39q-62 62 -80 147q-18 86 12 181q43 141 172 225q36 23 76 39l27 127h104l-20 -99q83 9 153 -14l25 113h102l-30 -154
q52 -40 102 -135l-94 -66q-20 48 -33 68l-4 4l-88 -416q70 -53 80 -63q61 -55 82 -141q19 -91 -15 -193q-56 -171 -198 -264z" />
    <glyph glyph-name="percent" unicode="%" horiz-adv-x="1634" 
d="M682 1278q-19 45 -64 45q-41 0 -81 -45q-25 -27 -54.5 -96t-50.5 -170q-14 -67 -18.5 -125t-1.5 -89.5t10 -49.5q10 -26 25 -36t40 -10q29 0 48.5 11.5t39.5 40.5q67 113 97 258q15 69 20 127t1.5 90t-11.5 49zM1612 649q-19 45 -64 45q-42 0 -82 -45q-24 -27 -52.5 -96
t-51.5 -170q-21 -114 -21 -175t13 -89q10 -25 24.5 -35t38.5 -10q30 0 49 11t39 40q63 95 99 258q21 115 21 176.5t-13 89.5zM690 725q-101 -119 -223 -119t-174 119q-50 111 -12 287q38 180 135 288q102 117 223 117q119 0 174 -117q48 -108 10 -288q-40 -182 -133 -287z
M1634 1415l-1081 -1442h-121l1086 1442h116zM1622 96q-104 -119 -225 -119q-122 0 -174 119q-51 114 -11 287q39 182 134 289q104 116 223 116q122 0 174 -116q50 -112 12 -289q-38 -176 -133 -287z" />
    <glyph glyph-name="ampersand" unicode="&#x26;" horiz-adv-x="1097" 
d="M772 233l-262 492q-81 -48 -158 -135q-73 -84 -88 -160q-30 -137 33 -227q71 -105 197 -105q58 0 128 33.5t138 93.5zM874 1219q-6 60 -55 84q-24 12 -57 12q-65 0 -111 -43q-46 -40 -61 -107q-8 -37 11 -90t69 -153q174 97 200 229q10 40 4 68zM926 -61l-111 211l-2 -3
l-47 -43q-90 -78 -194 -118.5t-201 -42.5q-67 0 -138 30q-65 25 -118 84q-52 62 -68 131q-20 71 0 168q31 142 127 238q102 98 293 215q-45 93 -65.5 165t-6.5 138q24 117 135 211q112 92 250 92q133 0 205 -69t47 -187q-41 -188 -319 -321l241 -445l236 207h98l6 -31
l-295 -262l197 -368h-270z" />
    <glyph glyph-name="quotesingle" unicode="'" horiz-adv-x="716" 
d="M846 1456l-408 -665h-127l348 665h187z" />
    <glyph glyph-name="parenleft" unicode="(" horiz-adv-x="724" 
d="M473 -408h-111q-212 352 -122 779q85 394 438 747h121q-34 -33 -76.5 -86.5t-95.5 -141.5t-98.5 -188.5t-81 -231t-49.5 -265.5t3.5 -295.5t71.5 -317.5z" />
    <glyph glyph-name="parenright" unicode=")" horiz-adv-x="827" 
d="M262 -408h-123q35 33 77.5 87t95.5 141.5t99 188t81.5 231t49.5 265.5t-3.5 295.5t-71.5 317.5h111q211 -354 122 -778q-85 -395 -438 -748z" />
    <glyph glyph-name="asterisk" unicode="*" horiz-adv-x="1431" 
d="M1311 891l-189 -238q-17 17 -38.5 39t-35.5 36.5t-20 21.5l-129 133l-6 -205q0 -51 -6 -150h-273q12 33 24.5 67t21 54.5t10.5 28.5l84 207l-189 -135q-6 -4 -28.5 -20t-51.5 -36.5t-55 -38.5l-86 236q95 34 152 51l211 70l-183 69q-55 20 -129 52l187 237q19 -18 39 -38
t37 -37.5t20 -20.5l129 -135l4 202q0 46 6 148h273q-36 -99 -56 -148l-82 -202l187 135q31 25 137 96l86 -237q-112 -40 -152 -52l-213 -69l183 -70q50 -17 131 -51z" />
    <glyph glyph-name="plus" unicode="+" horiz-adv-x="962" 
d="M1149 575h-406l-88 -417h-149l88 417h-406l29 138h406l90 417h149l-90 -417h406z" />
    <glyph glyph-name="comma" unicode="," horiz-adv-x="759" 
d="M610 180l-434 -635h-133l363 635h204z" />
    <glyph glyph-name="hyphen" unicode="-" horiz-adv-x="913" 
d="M768 332h-518l39 186h518z" />
    <glyph glyph-name="period" unicode="." horiz-adv-x="671" 
d="M403 -20q-50 -41 -104 -41q-60 0 -90 43q-31 42 -19 96q12 55 62 96q47 41 104 41q60 0 90 -41q30 -40 21 -96q-11 -55 -64 -98z" />
    <glyph glyph-name="slash" unicode="/" horiz-adv-x="1157" 
d="M1386 1452l-1048 -1501h-270l1050 1501h268z" />
    <glyph glyph-name="zero" unicode="0" horiz-adv-x="1390" 
d="M1126 1266q-23 53 -56 75.5t-85 22.5q-53 0 -96 -22.5t-88 -75.5q-50 -58 -107.5 -194.5t-99.5 -334.5q-29 -135 -38 -248t-3 -178t22 -102q25 -53 58 -75.5t86 -22.5q65 0 109 25.5t87 88.5q128 202 193 512q29 135 38 248.5t2.5 179t-22.5 101.5zM1102 193
q-97 -113 -196.5 -166.5t-215.5 -53.5t-192.5 53t-126.5 164q-94 208 -23 547q72 341 254 547q97 110 197 162.5t215 52.5q116 0 192.5 -52t126.5 -163q94 -208 23 -547q-72 -338 -254 -544z" />
    <glyph glyph-name="one" unicode="1" horiz-adv-x="1390" 
d="M887 -27h-37h-148h-75l301 1416l-54 -3h-81l16 76l8 37h395l-16 -74z" />
    <glyph glyph-name="two" unicode="2" horiz-adv-x="1390" 
d="M1284 811q-89 -115 -383 -354q-124 -98 -311 -226h618l-16 -73l-39 -185h-27h-6h-202h-523h-188l20 99l2 4l13 41q18 12 79 49.5t97 62.5q114 80 221 170q231 198 360 359q116 147 146 293q39 170 -27 252q-62 77 -184 77q-98 0 -197 -73q-51 -35 -96 -93l-20 -24
l-109 57l27 29q64 77 133 121q170 102 342 102q186 0 307 -106q129 -111 84 -328q-30 -130 -121 -254z" />
    <glyph glyph-name="three" unicode="3" horiz-adv-x="1390" 
d="M1004 860q55 -11 92 -39.5t69 -75.5q80 -118 43 -290q-48 -216 -227 -346q-97 -72 -188 -104t-203 -32q-102 0 -184 31l-62 25l154 121l28 -17q39 -27 90 -27q117 0 211 82q94 85 134 271q33 143 -11 213q-35 63 -104 63q-41 0 -96 -35l-43 -24l-62 123q14 7 39.5 22.5
t38.5 22.5q200 113 260 176q62 65 82 162q18 93 -18 135q-35 47 -115 47q-83 0 -162 -51q-12 -8 -22.5 -17.5t-16 -14.5t-15.5 -19t-12 -17t-13.5 -23t-12.5 -22l-137 92l37 39q38 38 73 64q139 104 338 104q94 0 155 -19.5t107 -68.5q90 -90 66 -209q-21 -100 -115 -188
q-46 -41 -67 -59t-56.5 -45t-74.5 -50z" />
    <glyph glyph-name="four" unicode="4" horiz-adv-x="1390" 
d="M788 588l105 493l-457 -493h352zM1337 461h-39h-260l-104 -488h-41h-158h-78l105 488h-137h-375l20 102q4 7 221.5 241t433.5 464l216 231h116l-55 -262l-137 -649h299z" />
    <glyph glyph-name="five" unicode="5" horiz-adv-x="1390" 
d="M987 131q-184 -158 -448 -158q-118 0 -191 33l-45 17l137 108l19 -16q43 -31 108 -31q130 0 240 98q111 102 162 334q46 211 -13 295q-55 82 -149 82q-130 0 -248 -139l-12 -15h-17h-92l113 535l31 141l2 12l16 72h690l-53 -252h-47h-12h-125h-385l-70 -327
q134 96 270 96q190 0 293 -142q104 -140 60 -350q-50 -238 -234 -393z" />
    <glyph glyph-name="six" unicode="6" horiz-adv-x="1390" 
d="M1065 676q-9 60 -57 102q-50 41 -119 41q-98 0 -187 -71q-87 -68 -129 -265q-21 -95 -12 -188q6 -86 57 -137q47 -47 119 -47q115 0 187 84q84 97 123 288q27 129 18 193zM657 862q38 28 93 53q93 43 188 43q197 0 309 -139q30 -37 45.5 -80t16.5 -91t-3.5 -88t-15.5 -91
q-21 -104 -61.5 -189t-122.5 -157q-173 -150 -385 -150q-180 0 -285 111q-99 108 -114 268q-15 155 20 324q74 345 285 581q219 242 499 242q46 0 111 -14l47 -10l-80 -138l-39 15q-30 10 -98 10q-147 0 -248 -125q-100 -120 -162 -375z" />
    <glyph glyph-name="seven" unicode="7" horiz-adv-x="1390" 
d="M1464 1499l-57 -100q-13 -23 -146.5 -257.5t-264 -463.5t-253 -441t-143.5 -243l-12 -21h-21h-82h-47l25 43q23 38 169.5 290t328.5 564t217 373h-377h-29h-252l37 170l2 12l14 74h891z" />
    <glyph glyph-name="eight" unicode="8" horiz-adv-x="1390" 
d="M985 637q-50 59 -151 59q-105 0 -168 -69q-73 -83 -101 -217q-21 -99 -18 -174q5 -53 49 -91q39 -36 117 -36q99 0 172 55q72 53 110 233q39 184 -10 240zM1102 1309q-35 59 -121 59q-75 0 -137 -53q-65 -61 -90 -185q-33 -157 -2 -233q26 -63 110 -63q96 0 154 61
q62 68 96 217q27 136 -10 197zM1034 86q-164 -113 -346 -113q-187 0 -299 121t-74 301q35 157 156 269q73 65 164 108q-47 34 -84 90q-66 106 -39 248q37 170 184 283q143 106 318 106q160 0 264 -104q112 -106 74 -285q-27 -139 -138 -244q-54 -54 -129 -94q56 -30 103 -86
q93 -113 55 -285q-44 -202 -209 -315z" />
    <glyph glyph-name="nine" unicode="9" horiz-adv-x="1390" 
d="M1149 1182q-9 87 -57 135q-47 47 -119 47q-114 0 -189 -84q-97 -111 -135 -289q-19 -96 -4 -192q9 -61 57 -103q50 -41 119 -41q96 0 185 70q90 73 131 266q18 95 12 191zM1051 610q-43 -30 -90 -51q-93 -43 -191 -43q-194 0 -309 139q-102 128 -53 351q43 210 196 346
q169 147 385 147q180 0 285 -108q100 -109 115 -269q13 -165 -23 -323q-71 -342 -283 -580q-220 -246 -499 -246q-122 0 -215 52l-50 28l160 125l23 -37q4 -7 10.5 -12t17.5 -8t19 -5t23 -2.5t22.5 -0.5h25.5h23q147 0 248 125q103 127 160 372z" />
    <glyph glyph-name="colon" unicode=":" horiz-adv-x="649" 
d="M403 -20q-50 -41 -104 -41q-60 0 -90 43q-31 42 -19 96q12 55 62 96t104 41q60 0 90 -41q32 -44 21 -96q-11 -55 -64 -98zM559 705q-50 -41 -106 -41q-57 0 -91 43q-29 44 -18 96q12 52 59 96q50 41 109 41q58 0 88 -41q33 -39 21 -96t-62 -98z" />
    <glyph glyph-name="semicolon" unicode=";" horiz-adv-x="763" 
d="M604 166l-432 -635h-135l362 635h205zM707 705q-50 -41 -107 -41q-58 0 -88 43q-32 43 -20 96q12 52 59 96q50 41 108 41q59 0 89 -41q33 -38 20 -96q-12 -58 -61 -98z" />
    <glyph glyph-name="less" unicode="&#x3c;" horiz-adv-x="540" 
 />
    <glyph glyph-name="equal" unicode="=" horiz-adv-x="2836" 
d="M2595 467h-961l31 149h961zM2664 799h-960l33 149h960z" />
    <glyph glyph-name="greater" unicode="&#x3e;" horiz-adv-x="540" 
 />
    <glyph glyph-name="question" unicode="?" horiz-adv-x="927" 
d="M373 -16q-50 -41 -107 -41q-58 0 -88 43q-32 43 -20 96q12 58 61 98q48 39 107 39q57 0 90 -39q30 -40 18 -98q-13 -58 -61 -98zM840 772q-110 -98 -242 -98q-69 0 -102 22l-93 -325h-94l82 448h129q22 -33 62 -33q63 0 114 68q52 74 86 227q29 141 -16 199
q-45 59 -117 59q-75 0 -141 -39l-64 80q132 58 232 58q188 0 264 -123q70 -111 29 -295q-35 -164 -129 -248z" />
    <glyph glyph-name="at" unicode="@" horiz-adv-x="550" 
 />
    <glyph glyph-name="A" unicode="A" horiz-adv-x="1619" 
d="M1049 614l-107 529l-326 -529h433zM1460 -27h-286l-56 287l-51 256h-508l-321 -543h-134l957 1526h76z" />
    <glyph glyph-name="B" unicode="B" horiz-adv-x="1380" 
d="M954 649q-75 78 -307 78h-67l-136 -639h160q91 0 151.5 14.5t102.5 51.5q98 83 131 247q39 168 -35 248zM1071 1278q-15 54 -70 86q-58 33 -208 33q-9 0 -34 -1t-38 -1l-119 -566q10 -2 29 -2q217 0 315 68q88 66 121 219q23 108 4 164zM1130 139q-112 -106 -253 -135
q-124 -31 -355 -31h-364l325 1526h320q307 0 447.5 -91t99.5 -280q-30 -154 -164 -247q-81 -58 -201 -93q143 -30 217 -110q108 -113 70 -283q-30 -147 -142 -256z" />
    <glyph glyph-name="C" unicode="C" horiz-adv-x="1345" 
d="M846 -27q-320 0 -479 203q-162 204 -91 535q46 217 181 407q133 195 323 289q189 92 385 92q168 0 287 -67q114 -63 170 -152v-29l-88 -69q-36 77 -70 106q-116 107 -290 107q-210 0 -371 -170q-165 -179 -234 -504q-64 -313 37 -475q106 -160 305 -160q114 0 234 53
q95 39 203 158l63 -82q-266 -242 -565 -242z" />
    <glyph glyph-name="D" unicode="D" horiz-adv-x="1671" 
d="M1368 1022q-14 135 -82 225q-68 89 -162 119q-102 31 -264 31q-51 0 -141 -4l-281 -1317h201q187 0 315 49q127 52 234 194q112 153 160 379q38 185 20 324zM1522 414q-79 -136 -189 -230q-111 -94 -233 -139q-124 -47 -232 -59q-114 -13 -286 -13h-426l325 1528l428 -2
q336 0 498 -102q169 -104 221 -279q55 -175 6 -403q-34 -160 -112 -301z" />
    <glyph glyph-name="E" unicode="E" horiz-adv-x="1173" 
d="M1366 1399h-477h-172l-62 -291l-10 -43l-49 -240h123h301l-21 -100h-297h-129l-32 -156l-9 -32l-10 -56l-22 -102l-64 -303h166h477l-22 -101h-905l84 404l22 102l18 88l115 541l84 391h911z" />
    <glyph glyph-name="F" unicode="F" horiz-adv-x="987" 
d="M1354 1399h-477h-170l-64 -295l-8 -43l-51 -236h123h303l-23 -100h-297h-127l-35 -160l-6 -35l-12 -53l-23 -102l-84 -402h-264l86 400l21 104l18 88l117 541l84 393h909z" />
    <glyph glyph-name="G" unicode="G" horiz-adv-x="1622" 
d="M1384 147q-125 -87 -178 -104q-201 -70 -352 -70q-314 0 -481 209t-99 529q68 315 316 551q249 237 594 237q298 0 444 -219l-6 -27l-92 -79q-29 64 -62 102q-100 121 -284 121q-193 0 -363 -142q-172 -140 -250 -510q-78 -369 27 -518q104 -149 307 -149q109 0 195 41
q88 42 129 98q38 53 57 150l62 286h256l-56 -258l-20 25q1 -86 -37.5 -155.5t-106.5 -117.5z" />
    <glyph glyph-name="H" unicode="H" horiz-adv-x="1656" 
d="M1438 -27h-264l159 752h-737l-158 -752h-264l324 1526h264l-144 -674h736l143 674h264z" />
    <glyph glyph-name="I" unicode="I" horiz-adv-x="657" 
d="M438 -27h-264l86 410l154 725l84 391h264l-84 -391l-154 -725z" />
    <glyph glyph-name="J" unicode="J" horiz-adv-x="1001" 
d="M836 301q-27 -77 -107 -164q-69 -74 -178 -121q-104 -43 -227 -43q-46 0 -93 15q-12 4 -32 12q-4 2 -10.5 6t-21 12.5t-32.5 18.5l101 63q33 -16 58.5 -24.5t34.5 -9.5h9q92 0 162 55q77 61 102 133q34 82 78 276l162 762l43 207h219l-43 -207l-162 -762
q-33 -145 -63 -229z" />
    <glyph glyph-name="K" unicode="K" horiz-adv-x="1632" 
d="M1294 283l242 -310h-365l-182 254l49 17q-32 2 -54.5 12t-31 18.5t-24.5 28.5l-318 404l-88 -70l-55 -258l-86 -406h-264l86 406l153 725l86 395h263l-84 -395l-70 -326l469 359q4 8 10 14l463 348h145l-383 -299q-15 -12 -49.5 -40t-56.5 -44l-41 -37l-266 -202
l415 -541q5 -6 17.5 -18.5t17.5 -18.5l-47 -18q8 -2 14.5 -4t11 -3.5t8 -2.5t5 -2t2.5 -1.5t2 -1.5l2 29q4 -8 4 -12z" />
    <glyph glyph-name="L" unicode="L" horiz-adv-x="1284" 
d="M1198 -27h-1075l86 406l153 725l84 395h265l-303 -1423h813z" />
    <glyph glyph-name="M" unicode="M" horiz-adv-x="1931" 
d="M1712 -27h-264l90 420l174 819l-809 -1239h-86l-278 1239l-158 -743l-107 -496h-100l107 502l137 643l80 381h247l273 -1184l774 1184h244l-80 -381l-156 -725z" />
    <glyph glyph-name="N" unicode="N" horiz-adv-x="1562" 
d="M1343 -27h-77l-717 1309l-197 -924l-73 -348h-101l74 348l164 764l80 377h260l573 -1067l166 785l61 282h111l-63 -299z" />
    <glyph glyph-name="O" unicode="O" horiz-adv-x="1835" 
d="M1507 1229q-48 87 -122.5 127.5t-196.5 40.5q-116 0 -194.5 -38t-166.5 -126q-166 -166 -235 -494q-72 -332 24 -499q50 -86 117 -124t191 -38q112 0 198 39t172 123q79 78 128 196.5t87 300.5q25 117 34.5 203t1.5 161t-38 128zM1464 186q-138 -110 -270.5 -161.5
t-304.5 -51.5q-168 0 -278 51t-203 162q-181 211 -107 562q74 338 346 546q141 107 269.5 156t291.5 49q166 0 276 -48.5t206 -154.5q189 -204 112 -557q-71 -342 -338 -553z" />
    <glyph glyph-name="P" unicode="P" horiz-adv-x="1265" 
d="M1040 1309q-62 77 -254 77q-63 0 -86 -2l-131 -614h78q148 0 199 16q76 21 135 91q64 73 88 184q36 173 -29 248zM1247 854q-73 -91 -194 -145q-56 -24 -143.5 -32.5t-227.5 -8.5h-133l-64 -299q-27 -121 -32 -146l-21 25q9 -21 2 -82.5t-20 -127.5l-13 -65h-262l84 396
l152 716l88 414h325q219 0 347 -41q118 -36 184 -137q64 -97 33 -244q-27 -126 -105 -223z" />
    <glyph glyph-name="Q" unicode="Q" horiz-adv-x="1812" 
d="M750 100q8 4 14 6q90 16 172 13q28 -1 74 -8t49 -7q6 0 8 -2q110 42 209 138q78 76 126.5 194.5t86.5 300.5q25 116 34.5 201.5t1.5 160.5t-38 128q-49 87 -122.5 127.5t-195.5 40.5q-116 0 -194 -38t-166 -126q-167 -167 -236 -492q-69 -331 27 -497q59 -107 150 -140z
M1444 184q-130 -98 -232 -143q69 -38 130 -102.5t131 -174.5l-168 -40q-91 190 -250 268q-108 -19 -185 -19q-168 0 -276.5 50.5t-202.5 160.5q-181 210 -106 559q74 342 344 547q142 106 270.5 155.5t290.5 49.5q164 0 273.5 -48.5t205.5 -154.5q187 -205 113 -555
q-71 -342 -338 -553z" />
    <glyph glyph-name="R" unicode="R" horiz-adv-x="1466" 
d="M1077 1315q-46 71 -303 71l-65 3l-131 -615h145q26 0 76 12q4 1 71 21q50 13 107 59q44 37 74 86q32 59 49 138q29 143 -23 225zM946 717q35 -25 47 -37q76 -65 140 -186q9 -17 24 -52t55 -169.5t72 -299.5h-227q-1 24 -6 66.5t-19.5 110t-36 136t-58.5 139.5t-83 125.5
t-113.5 89t-146.5 34.5l-37 2l-59 -285l-90 -418h-261l91 418l149 713l86 395h346q227 0 336 -35q138 -44 197 -127q66 -96 39 -227q-35 -154 -170 -262q-121 -96 -275 -131z" />
    <glyph glyph-name="S" unicode="S" horiz-adv-x="1243" 
d="M905 57q-164 -106 -370 -82q-108 11 -213.5 90t-149.5 191l92 82q64 -133 125 -188t162 -72q127 -20 229 53q98 70 129 164q31 97 -12 166q-43 73 -201 174q-134 82 -211 156q-72 68 -92 165q-20 96 15 203q49 163 194 258q143 94 309 76q93 -9 162 -49q71 -38 137 -166
l-100 -70q-21 51 -37 76q-67 97 -182 109q-109 11 -180 -41q-73 -61 -93 -127q-27 -86 17 -154q49 -74 203 -176q162 -110 217 -160q71 -62 92 -160q21 -100 -17 -221q-62 -189 -225 -297z" />
    <glyph glyph-name="T" unicode="T" horiz-adv-x="1462" 
d="M1890 1399h-399h-215l-215 -1010l-88 -416h-264l88 416l215 1010h-191h-418l23 100h1485z" />
    <glyph glyph-name="U" unicode="U" horiz-adv-x="1605" 
d="M1448 365q-31 -85 -137 -191q-91 -91 -236 -145q-145 -56 -311 -56q-198 0 -326 70q-124 66 -162 182q-40 119 7 295l41 148l96 452l82 379h260l-80 -379l-98 -458q-36 -175 -41 -203q-17 -78 -17 -129q0 -99 72 -160q79 -70 242 -70q128 0 243 47q118 50 179 117
q74 77 96 142q56 165 74 245l104 496l76 352h100l-80 -371l-102 -485q-33 -152 -82 -278z" />
    <glyph glyph-name="V" unicode="V" horiz-adv-x="1662" 
d="M1835 1499l-311 -491l-656 -1035h-98l-258 1157l-8 31q-9 27 -15 74q-3 15 -14 59l-45 205h270l70 -295l199 -903l467 739q25 40 75 127l201 332h123z" />
    <glyph glyph-name="W" unicode="W" horiz-adv-x="2455" 
d="M2628 1499l-314 -491l-653 -1035h-100l-181 811l-512 -811h-98l-260 1155l-8 27q-2 10 -15 76q-10 51 -14 61l-43 207h270l70 -295l199 -905q156 247 280 446.5t171 276.5l46 76h121l174 -797l465 735q15 24 40.5 67.5t37.5 61.5l201 334h123z" />
    <glyph glyph-name="X" unicode="X" horiz-adv-x="1818" 
d="M754 1499l164 -280l4 2l192 -316l285 281l117 117l200 196h137l-329 -321q-12 -12 -38.5 -36.5t-41.5 -39.5l-279 -277l275 -450q30 -51 121 -189l135 -213h-367l-125 226q-49 94 -67 125l-181 299l-266 -256q-24 -23 -60 -60t-38 -39l-293 -295h-139l340 338
q13 12 50.5 50.5t61.5 60.5l293 283l-278 448l-95 152q-3 5 -11 15t-11 15l-107 164h351z" />
    <glyph glyph-name="Y" unicode="Y" horiz-adv-x="1642" 
d="M1835 1499l-756 -921l-127 -605h-262l125 590l-385 936h328l295 -803l633 803h149z" />
    <glyph glyph-name="Z" unicode="Z" horiz-adv-x="1325" 
d="M1528 1411l-1206 -1335h397h510l-23 -103h-1237l17 76l1204 1350h-408h-409l22 100h1151z" />
    <glyph glyph-name="bracketleft" unicode="[" horiz-adv-x="1792" 
d="M674 1106h14h31h12l-6 -27h-12h-31h-12zM1393 -408h-191h-133q-10 11 -13.5 29t-1.5 31l1 12l291 1364l14 72h29h133h190l-20 -96h-166l-277 -1315h164z" />
    <glyph glyph-name="backslash" unicode="\" horiz-adv-x="1275" 
d="M1124 -61h-270l-408 1488h269z" />
    <glyph glyph-name="bracketright" unicode="]" horiz-adv-x="757" 
d="M434 -408h-160h-192l20 97h166l279 1315h-164l20 96h189h135q10 -12 13 -30t1 -30l-2 -12l-290 -1364z" />
    <glyph glyph-name="asciicircum" unicode="^" horiz-adv-x="2471" 
d="M913 1487h15h41h12l-4 -25h-14h-41h-13zM2701 688h-291l-217 483l-421 -483h-138l678 813h43z" />
    <glyph glyph-name="underscore" unicode="_" 
 />
    <glyph glyph-name="grave" unicode="`" 
 />
    <glyph glyph-name="a" unicode="a" horiz-adv-x="1030" 
d="M659 170l52 244l-70 -27q-236 -87 -262 -215q-11 -45 6 -76q18 -24 53 -24q78 0 221 98zM612 -45l13 55l10 49q-74 -42 -143 -71q-87 -35 -152 -35q-77 0 -120.5 69t-31.5 132q13 55 39 93t82 75q114 73 287 139l135 49l4 20q16 79 13 105q0 25 -31 47q-30 23 -90 23
q-50 0 -87.5 -12t-82.5 -40l-54 68q133 74 263 74q123 0 182 -39q63 -44 74 -94q11 -49 -9 -152l-63 -299l-55 -258q-29 2 -183 2z" />
    <glyph glyph-name="b" unicode="b" horiz-adv-x="1136" 
d="M825 614q-42 76 -135 76q-103 0 -231 -104l-92 -432q1 -6 3 -12t6 -12l7 -10.5t10 -12t10 -11t11.5 -11.5t11.5 -11q42 -39 109 -39q100 0 180 86q82 85 119 258q36 151 -9 235zM420 1257h119h28h33l-117 -552q130 83 250 83q170 0 256 -118q74 -110 31 -310
q-19 -94 -57 -164t-105 -130q-138 -123 -315 -123q-137 0 -203 86l-18 -86h-181z" />
    <glyph glyph-name="c" unicode="c" horiz-adv-x="944" 
d="M532 -57q-170 0 -260 112q-89 118 -49 301q37 187 178 301q136 115 308 115q145 0 233 -88l-74 -61q-59 51 -141 51q-118 0 -195 -86q-79 -89 -108 -232q-32 -137 10 -229q41 -86 158 -86q83 0 164 51l47 -61q-125 -88 -271 -88z" />
    <glyph glyph-name="d" unicode="d" horiz-adv-x="1165" 
d="M797 154l92 432q-82 104 -191 104q-90 0 -166 -76q-74 -77 -108 -235q-36 -171 8 -258q44 -86 146 -86q63 0 124 39q8 6 27.5 19.5t29 20.5t21 18.5t17.5 21.5zM1030 1257h35h29h116l-278 -1314h-180l18 86q-104 -86 -240 -86q-176 0 -262 123q-42 60 -50.5 132.5
t11.5 161.5q43 199 164 310q136 118 305 118q122 0 215 -83z" />
    <glyph glyph-name="e" unicode="e" horiz-adv-x="1015" 
d="M674 696q-130 0 -197 -151h332q1 24 -4.5 47.5t-19 48t-42 40t-69.5 15.5zM952 459h-503q-10 -37 -15 -53q-39 -185 -2 -279q38 -86 141 -86q65 0 119.5 28t112.5 93l53 -68q-61 -66 -119 -96q-104 -55 -211 -55q-102 0 -178 49q-80 53 -117 143q-36 89 -8 221
q37 183 174 308q136 124 301 124q159 0 222 -96q34 -47 40.5 -102t-10.5 -131z" />
    <glyph glyph-name="f" unicode="f" horiz-adv-x="821" 
d="M1049 1212l-88 -71q-45 57 -99 57q-45 0 -92 -35q-43 -37 -63 -90q-27 -94 -64 -264l-6 -31h156l-19 -94h-158l-69 -328l-21 -98l-61 -283h-182l59 283l90 426h-139l20 94h140l10 43q26 125 47 178q25 73 86 140q55 69 139 112q95 47 176 39q49 -4 77.5 -20.5t60.5 -57.5
z" />
    <glyph glyph-name="g" unicode="g" horiz-adv-x="1077" 
d="M786 649q-30 37 -100 37q-84 0 -121 -45q-54 -57 -80 -186q-25 -111 9 -164q25 -39 104 -39q70 0 115 37q59 56 84 182q29 135 -11 178zM784 -483q-130 -84 -333 -84q-186 0 -287 73q-102 76 -78 197q1 2 8 33h123q-5 -23 -5 -44t5 -46.5t23 -46t46.5 -38.5t78 -28
t114.5 -10q135 0 215 53q79 49 94 123q1 5 5.5 24.5t5.5 30.5q0 33 -13 56q-41 67 -237 67q-127 0 -198.5 7t-96.5 28q-63 48 -45 127q23 123 174 170q-124 111 -90 268q27 133 151 225q126 91 263 91q88 0 170 -40t106 -100q35 -84 14 -180q-23 -121 -137 -223
q-110 -96 -319 -105q-170 -5 -201 -61q-9 -17 -6 -29t26 -16q61 -12 232 -16q36 0 123 -5q62 -4 80 -8q90 -21 131 -96q42 -70 20 -172q-31 -141 -162 -225z" />
    <glyph glyph-name="h" unicode="h" horiz-adv-x="1054" 
d="M860 -25h-182l59 283l49 225q19 100 19 133q-3 38 -31 60q-27 24 -82 24q-65 0 -121 -36q-55 -32 -112 -111l-64 -295l-59 -283h-184l61 283l160 750l59 280h123h10h49l-125 -588q128 109 271 109q99 0 160 -43q59 -46 65 -109q8 -58 -20 -192l-43 -207z" />
    <glyph glyph-name="i" unicode="i" horiz-adv-x="602" 
d="M379 -27h-182l59 285l49 227l2 13l66 311h137h45l-88 -418l-29 -133zM600 1038q-43 -37 -94 -37t-78 37q-25 35 -16 88q9 49 53 84q43 37 94 37t78 -37q25 -32 16 -84q-12 -53 -53 -88z" />
    <glyph glyph-name="j" unicode="j" horiz-adv-x="892" 
d="M641 -207q-22 -65 -80 -133q-59 -64 -141 -102q-79 -39 -176 -39q-45 0 -113 16l55 103q29 -27 54 -27h49q47 0 92 31q47 37 63 84q27 74 50 186l122 577l68 322h137h45l-176 -831q-23 -116 -49 -187zM905 1038q-43 -34 -92 -34q-55 0 -78 36q-25 35 -16 86q9 49 53 84
q40 37 92 37q51 0 78 -37q28 -35 16 -84q-9 -50 -53 -88z" />
    <glyph glyph-name="k" unicode="k" horiz-adv-x="1034" 
d="M401 1184h125h35h25l-152 -717l490 311h98l-8 -39q-393 -249 -428 -272l315 -494h-229l-250 387l-12 -6l-21 -96l-59 -285h-185l60 285l178 829z" />
    <glyph glyph-name="l" unicode="l" horiz-adv-x="569" 
d="M453 1288h125h49h10l-219 -1030l-62 -285h-182l59 285l158 743z" />
    <glyph glyph-name="m" unicode="m" horiz-adv-x="1626" 
d="M1399 -27h-182l59 285l53 250q17 72 17 110q0 27 -25 52q-25 22 -76 22q-108 0 -246 -145l-61 -289l-61 -285h-183l60 285l45 209q18 81 22 139q0 37 -26 60q-23 26 -76 26q-100 0 -240 -131l-63 -303l-62 -285h-182l61 285l48 225l69 326h182l-24 -117q140 117 285 117
q99 0 155 -47q41 -38 53 -98q167 145 316 145q94 0 151 -45q59 -47 62 -107q3 -50 -23 -174l-47 -225z" />
    <glyph glyph-name="n" unicode="n" horiz-adv-x="1103" 
d="M877 -27h-183l60 285l45 209q18 81 22 139q0 37 -26 60q-23 26 -76 26q-100 0 -240 -131l-63 -303l-62 -285h-182l61 285l48 225l69 326h182l-24 -117q140 117 285 117q99 0 155 -47q70 -62 60 -144q2 -8 -7 -63l-63 -297z" />
    <glyph glyph-name="o" unicode="o" horiz-adv-x="1140" 
d="M836 625q-35 71 -134 71q-98 0 -163 -71q-81 -89 -119 -263q-39 -171 8 -260q37 -67 133 -67q100 0 164 67q83 86 119 260q37 171 -8 263zM846 55q-136 -112 -303 -112q-165 0 -254 114q-92 118 -51 310q41 183 178 299q137 122 307 122q168 0 256 -122q86 -124 49 -299
q-41 -195 -182 -312z" />
    <glyph glyph-name="p" unicode="p" horiz-adv-x="1142" 
d="M809 571q-50 74 -139 74q-105 0 -224 -110l-90 -431q28 -48 74 -77q44 -27 96 -27q90 0 174 78q88 82 127 262q33 158 -18 231zM852 25q-137 -125 -315 -125q-121 0 -207 80l-49 -226l-60 -278h-180l59 278l144 672l69 324h181l-19 -88q124 88 256 88q165 0 250 -117
q86 -115 45 -301q-41 -183 -174 -307z" />
    <glyph glyph-name="q" unicode="q" horiz-adv-x="1173" 
d="M797 104l92 431q-67 110 -176 110q-87 0 -170 -74q-80 -71 -117 -231q-38 -178 14 -262q52 -78 142 -78q52 0 108 27q56 29 107 77zM844 -524h-180l59 278l47 226q-119 -80 -240 -80q-180 0 -262 125q-82 126 -45 307q42 189 174 301q135 117 299 117q131 0 219 -88
l19 88h180l-67 -324l-144 -672z" />
    <glyph glyph-name="r" unicode="r" horiz-adv-x="813" 
d="M815 758l-72 -101q-54 37 -92 33t-92 -47q-58 -44 -84 -98q-26 -50 -47 -154l-29 -133l-61 -285h-182l59 285l45 213l72 338h174l-25 -115q75 73 163.5 92t170.5 -28z" />
    <glyph glyph-name="s" unicode="s" horiz-adv-x="837" 
d="M156 10l16 78l18 12l23 -41q-2 -2 -57 -49zM530 -23q-89 -51 -192 -32q-55 11 -93 45.5t-65 101.5l86 51q18 -53 43 -77.5t64 -32.5q52 -8 90 16q40 26 55 68q18 47 4 80q-21 43 -94 108q-89 83 -111 144q-27 71 7 153q35 81 116 141q87 62 187 41q48 -9 81 -40.5
t56 -90.5l-88 -51q-17 46 -36 66t-48 26q-42 9 -76 -12q-36 -22 -47 -53q-14 -36 2 -70q17 -38 90 -100q120 -97 129 -180q3 -84 -22 -144q-44 -106 -138 -158z" />
    <glyph glyph-name="t" unicode="t" horiz-adv-x="868" 
d="M596 -25q-60 -32 -129 -32q-73 0 -119 43t-49 104q0 55 27 184l84 392h-109l21 92h106l49 231h180l-49 -231h221l-18 -92h-223l-88 -418q-21 -105 -21 -133q3 -25 21 -43q20 -17 43 -17q50 0 123 84l59 -43q-59 -87 -129 -121z" />
    <glyph glyph-name="u" unicode="u" horiz-adv-x="1097" 
d="M858 -35h-180l20 96q-130 -118 -280 -118q-80 0 -135 37q-56 38 -70 94q-12 53 10 155l53 252l60 277h180l-113 -535q-16 -82 -14 -104q0 -24 27 -45q28 -21 65 -21q64 0 125 41q69 43 96 86q33 48 50 133l34 168l60 277h180l-108 -508z" />
    <glyph glyph-name="v" unicode="v" horiz-adv-x="1079" 
d="M1098 758l-535 -815h-84l-194 815h196l137 -588l383 588h97z" />
    <glyph glyph-name="w" unicode="w" horiz-adv-x="1636" 
d="M1651 760l-535 -817h-84l-117 487l-319 -487h-86l-195 817h197l139 -590l303 469h107l110 -469l383 590h97z" />
    <glyph glyph-name="x" unicode="x" horiz-adv-x="1167" 
d="M1018 -27h-236l-184 314l-332 -314h-131l422 387l-250 418h234l164 -282l303 282h133l-393 -352z" />
    <glyph glyph-name="y" unicode="y" horiz-adv-x="1054" 
d="M1067 723l-829 -1268h-95l308 473l-189 795h195l137 -582l377 582h96z" />
    <glyph glyph-name="z" unicode="z" horiz-adv-x="1019" 
d="M995 711l-608 -643h467l-14 -68l-21 27q-4 -24 -178 -37.5t-346 -15.5l-172 -1l14 64l611 647h-443l21 94h684z" />
    <glyph glyph-name="braceleft" unicode="{" 
 />
    <glyph glyph-name="bar" unicode="|" 
 />
    <glyph glyph-name="braceright" unicode="}" 
 />
    <glyph glyph-name="asciitilde" unicode="~" 
 />
    <glyph glyph-name="DEL" horiz-adv-x="540" 
 />
    <glyph glyph-name="uni00A0" unicode="&#xa0;" 
 />
    <glyph glyph-name="exclamdown" unicode="&#xa1;" 
 />
    <glyph glyph-name="cent" unicode="&#xa2;" 
 />
    <glyph glyph-name="sterling" unicode="&#xa3;" 
 />
    <glyph glyph-name="yen" unicode="&#xa5;" 
 />
    <glyph glyph-name="brokenbar" unicode="&#xa6;" 
 />
    <glyph glyph-name="section" unicode="&#xa7;" 
 />
    <glyph glyph-name="dieresis" unicode="&#xa8;" 
 />
    <glyph glyph-name="copyright" unicode="&#xa9;" 
 />
    <glyph glyph-name="ordfeminine" unicode="&#xaa;" 
 />
    <glyph glyph-name="guillemotleft" unicode="&#xab;" 
 />
    <glyph glyph-name="logicalnot" unicode="&#xac;" 
 />
    <glyph glyph-name="registered" unicode="&#xae;" 
 />
    <glyph glyph-name="degree" unicode="&#xb0;" 
 />
    <glyph glyph-name="plusminus" unicode="&#xb1;" 
 />
    <glyph glyph-name="twosuperior" unicode="&#xb2;" 
 />
    <glyph glyph-name="threesuperior" unicode="&#xb3;" 
 />
    <glyph glyph-name="acute" unicode="&#xb4;" 
 />
    <glyph glyph-name="mu" unicode="&#xb5;" 
 />
    <glyph glyph-name="paragraph" unicode="&#xb6;" 
 />
    <glyph glyph-name="periodcentered" unicode="&#xb7;" horiz-adv-x="540" 
 />
    <glyph glyph-name="onesuperior" unicode="&#xb9;" 
 />
    <glyph glyph-name="ordmasculine" unicode="&#xba;" 
 />
    <glyph glyph-name="guillemotright" unicode="&#xbb;" 
 />
    <glyph glyph-name="onequarter" unicode="&#xbc;" 
 />
    <glyph glyph-name="onehalf" unicode="&#xbd;" 
 />
    <glyph glyph-name="threequarters" unicode="&#xbe;" 
 />
    <glyph glyph-name="questiondown" unicode="&#xbf;" 
 />
    <glyph glyph-name="Agrave" unicode="&#xc0;" horiz-adv-x="1193" 
d="M901 614l-108 529l-324 -529h432zM1311 -27h-285l-57 287l-51 256h-506l-324 -543h-131l954 1526h76zM1057 1614h-146l-147 215h174z" />
    <glyph glyph-name="Aacute" unicode="&#xc1;" horiz-adv-x="1193" 
d="M901 614l-108 529l-324 -529h432zM1311 -27h-285l-57 287l-51 256h-506l-324 -543h-131l954 1526h76zM1274 1829l-240 -215h-145l211 215h174z" />
    <glyph glyph-name="Acircumflex" unicode="&#xc2;" horiz-adv-x="540" 
 />
    <glyph glyph-name="Atilde" unicode="&#xc3;" horiz-adv-x="540" 
 />
    <glyph glyph-name="Adieresis" unicode="&#xc4;" 
 />
    <glyph glyph-name="Aring" unicode="&#xc5;" 
 />
    <glyph glyph-name="AE" unicode="&#xc6;" 
 />
    <glyph glyph-name="Ccedilla" unicode="&#xc7;" 
 />
    <glyph glyph-name="Egrave" unicode="&#xc8;" horiz-adv-x="1120" 
d="M1184 1399h-477h-172l-62 -291l-8 -43l-51 -240h123h301l-21 -100h-297h-129l-33 -156l-6 -32l-12 -56l-21 -102l-65 -303h168h475l-20 -101h-908l86 404l21 102l20 88l115 541l82 391h911zM924 1614h-146l-147 215h174z" />
    <glyph glyph-name="Eacute" unicode="&#xc9;" horiz-adv-x="1120" 
d="M1184 1399h-477h-172l-62 -291l-8 -43l-51 -240h123h301l-21 -100h-297h-129l-33 -156l-6 -32l-12 -56l-21 -102l-65 -303h168h475l-20 -101h-908l86 404l21 102l20 88l115 541l82 391h911zM1083 1829l-239 -215h-146l211 215h174z" />
    <glyph glyph-name="Ecircumflex" unicode="&#xca;" horiz-adv-x="540" 
 />
    <glyph glyph-name="Edieresis" unicode="&#xcb;" horiz-adv-x="540" 
 />
    <glyph glyph-name="Igrave" unicode="&#xcc;" horiz-adv-x="540" 
 />
    <glyph glyph-name="Iacute" unicode="&#xcd;" horiz-adv-x="540" 
 />
    <glyph glyph-name="Icircumflex" unicode="&#xce;" horiz-adv-x="540" 
 />
    <glyph glyph-name="Idieresis" unicode="&#xcf;" horiz-adv-x="540" 
 />
    <glyph glyph-name="Eth" unicode="&#xd0;" 
 />
    <glyph glyph-name="Ntilde" unicode="&#xd1;" 
 />
    <glyph glyph-name="Ograve" unicode="&#xd2;" horiz-adv-x="1800" 
d="M1337 1229q-47 87 -121 127.5t-196 40.5q-116 0 -194.5 -38t-166.5 -126q-166 -166 -235 -494q-72 -331 25 -499q50 -87 116 -124.5t191 -37.5q111 0 197 39t173 123q78 78 127 196.5t88 300.5q25 118 34.5 203t1 160.5t-39.5 128.5zM1296 186q-140 -111 -272 -162
t-305 -51q-168 0 -276.5 51t-202.5 162q-181 211 -107 562q70 334 344 546q141 107 270 156t293 49q165 0 274.5 -48.5t207.5 -154.5q186 -204 112 -557q-71 -342 -338 -553zM1182 1614h-146l-147 215h174z" />
    <glyph glyph-name="Oacute" unicode="&#xd3;" horiz-adv-x="1800" 
d="M1337 1229q-47 87 -121 127.5t-196 40.5q-116 0 -194.5 -38t-166.5 -126q-166 -166 -235 -494q-72 -331 25 -499q50 -87 116 -124.5t191 -37.5q111 0 197 39t173 123q78 78 127 196.5t88 300.5q25 118 34.5 203t1 160.5t-39.5 128.5zM1296 186q-140 -111 -272 -162
t-305 -51q-168 0 -276.5 51t-202.5 162q-181 211 -107 562q70 334 344 546q141 107 270 156t293 49q165 0 274.5 -48.5t207.5 -154.5q186 -204 112 -557q-71 -342 -338 -553zM1376 1829l-239 -215h-146l211 215h174z" />
    <glyph glyph-name="Ocircumflex" unicode="&#xd4;" horiz-adv-x="540" 
 />
    <glyph glyph-name="Otilde" unicode="&#xd5;" horiz-adv-x="540" 
 />
    <glyph glyph-name="Odieresis" unicode="&#xd6;" 
 />
    <glyph glyph-name="multiply" unicode="&#xd7;" 
 />
    <glyph glyph-name="Oslash" unicode="&#xd8;" 
 />
    <glyph glyph-name="Ugrave" unicode="&#xd9;" horiz-adv-x="1531" 
d="M1249 365q-33 -91 -137 -191q-92 -92 -235 -145q-142 -56 -312 -56q-198 0 -323 70q-123 66 -164 182q-41 121 6 295l43 148l96 452l80 379h260l-80 -379l-98 -458q-36 -175 -41 -203q-16 -88 -16 -129q0 -100 71 -160q79 -70 244 -70q127 0 242 47q114 48 180 117
q73 79 94 142q56 165 74 245l104 496l76 352h100l-77 -371l-105 -485q-33 -152 -82 -278zM1143 1614h-146l-147 215h174z" />
    <glyph glyph-name="Uacute" unicode="&#xda;" horiz-adv-x="1531" 
d="M1249 365q-33 -91 -137 -191q-92 -92 -235 -145q-142 -56 -312 -56q-198 0 -323 70q-123 66 -164 182q-41 121 6 295l43 148l96 452l80 379h260l-80 -379l-98 -458q-36 -175 -41 -203q-16 -88 -16 -129q0 -100 71 -160q79 -70 244 -70q127 0 242 47q114 48 180 117
q73 79 94 142q56 165 74 245l104 496l76 352h100l-77 -371l-105 -485q-33 -152 -82 -278zM1274 1829l-240 -215h-145l211 215h174z" />
    <glyph glyph-name="Ucircumflex" unicode="&#xdb;" horiz-adv-x="540" 
 />
    <glyph glyph-name="Udieresis" unicode="&#xdc;" 
 />
    <glyph glyph-name="Yacute" unicode="&#xdd;" 
 />
    <glyph glyph-name="Thorn" unicode="&#xde;" 
 />
    <glyph glyph-name="germandbls" unicode="&#xdf;" 
 />
    <glyph glyph-name="agrave" unicode="&#xe0;" horiz-adv-x="1298" 
d="M827 170l54 244l-70 -27q-235 -85 -264 -215q-8 -46 8 -76q18 -24 53 -24q81 0 219 98zM782 -45l13 55l10 49q-86 -47 -146 -71q-84 -35 -149 -35q-77 0 -120.5 69t-31.5 132q11 54 37.5 92.5t83.5 75.5q119 75 287 139l135 49l4 20q16 79 13 105q0 22 -31 47
q-30 23 -90 23q-50 0 -87.5 -12t-82.5 -40l-54 68q133 74 263 74q120 0 182 -39q63 -44 74 -94q11 -52 -11 -152l-63 -299l-53 -258q-31 2 -183 2zM1020 926h-146l-147 215h176z" />
    <glyph glyph-name="aacute" unicode="&#xe1;" horiz-adv-x="1300" 
d="M827 170l54 244l-70 -27q-235 -85 -264 -215q-8 -46 8 -76q18 -24 53 -24q81 0 219 98zM782 -45l13 55l10 49q-86 -47 -146 -71q-84 -35 -149 -35q-77 0 -120.5 69t-31.5 132q11 54 37.5 92.5t83.5 75.5q119 75 287 139l135 49l4 20q16 79 13 105q0 22 -31 47
q-30 23 -90 23q-50 0 -87.5 -12t-82.5 -40l-54 68q133 74 263 74q120 0 182 -39q63 -44 74 -94q11 -52 -11 -152l-63 -299l-53 -258q-31 2 -183 2zM1153 1141l-238 -215h-145l209 215h174z" />
    <glyph glyph-name="acircumflex" unicode="&#xe2;" horiz-adv-x="540" 
 />
    <glyph glyph-name="atilde" unicode="&#xe3;" horiz-adv-x="540" 
 />
    <glyph glyph-name="adieresis" unicode="&#xe4;" horiz-adv-x="540" 
 />
    <glyph glyph-name="aring" unicode="&#xe5;" horiz-adv-x="540" 
 />
    <glyph glyph-name="ae" unicode="&#xe6;" 
 />
    <glyph glyph-name="ccedilla" unicode="&#xe7;" horiz-adv-x="540" 
 />
    <glyph glyph-name="egrave" unicode="&#xe8;" horiz-adv-x="1026" 
d="M936 696q-130 0 -197 -151h332q0 19 -3 37t-11.5 39.5t-23 37.5t-39.5 26.5t-58 10.5zM1214 459h-503q-10 -37 -15 -53q-40 -190 -2 -279q38 -86 142 -86q65 0 119 28t112 93l53 -68q-61 -66 -119 -96q-104 -55 -210 -55q-102 0 -181 49q-77 53 -114 143t-9 221
q38 186 175 308q136 124 301 124q152 0 221 -96q33 -46 39.5 -102t-9.5 -131zM1122 926h-145l-148 215h177z" />
    <glyph glyph-name="eacute" unicode="&#xe9;" horiz-adv-x="1028" 
d="M936 696q-130 0 -197 -151h332q0 19 -3 37t-11.5 39.5t-23 37.5t-39.5 26.5t-58 10.5zM1214 459h-503q-10 -37 -15 -53q-40 -190 -2 -279q38 -86 142 -86q65 0 119 28t112 93l53 -68q-61 -66 -119 -96q-104 -55 -210 -55q-102 0 -181 49q-77 53 -114 143t-9 221
q38 186 175 308q136 124 301 124q156 0 221 -96q33 -46 39.5 -102t-9.5 -131zM1276 1141l-238 -215h-145l209 215h174z" />
    <glyph glyph-name="ecircumflex" unicode="&#xea;" horiz-adv-x="540" 
 />
    <glyph glyph-name="edieresis" unicode="&#xeb;" horiz-adv-x="540" 
 />
    <glyph glyph-name="igrave" unicode="&#xec;" horiz-adv-x="913" 
d="M678 485l-49 -227l-62 -285h-182l61 285l29 133l88 418h45h137l-65 -311h-27q12 0 18.5 -3t6.5 -7v-3zM768 926h-152l-122 217l198 -2z" />
    <glyph glyph-name="iacute" unicode="&#xed;" horiz-adv-x="958" 
d="M520 -27h-182l59 285l49 227l3 13l65 311h137h45l-88 -418l-28 -133zM907 1143l-215 -217h-149l166 215z" />
    <glyph glyph-name="icircumflex" unicode="&#xee;" horiz-adv-x="540" 
 />
    <glyph glyph-name="idieresis" unicode="&#xef;" horiz-adv-x="540" 
 />
    <glyph glyph-name="eth" unicode="&#xf0;" 
 />
    <glyph glyph-name="ntilde" unicode="&#xf1;" horiz-adv-x="540" 
 />
    <glyph glyph-name="ograve" unicode="&#xf2;" horiz-adv-x="1087" 
d="M1018 625q-38 71 -135 71q-96 0 -164 -71q-81 -89 -119 -263q-37 -175 8 -260q40 -67 135 -67q98 0 162 67q83 86 119 260q36 169 -6 263zM1026 55q-136 -112 -303 -112q-165 0 -254 114q-92 118 -51 310q41 183 178 299q137 122 307 122q168 0 256 -122q86 -124 49 -299
q-41 -195 -182 -312zM1065 926h-145l-148 215h176z" />
    <glyph glyph-name="oacute" unicode="&#xf3;" horiz-adv-x="1087" 
d="M1018 625q-38 71 -135 71q-96 0 -164 -71q-81 -89 -119 -263q-37 -175 8 -260q40 -67 135 -67q98 0 162 67q83 86 119 260q36 169 -6 263zM1026 55q-136 -112 -303 -112q-165 0 -254 114q-92 118 -51 310q41 183 178 299q137 122 307 122q168 0 256 -122q86 -124 49 -299
q-41 -195 -182 -312zM1198 1141l-237 -215h-146l209 215h174z" />
    <glyph glyph-name="ocircumflex" unicode="&#xf4;" horiz-adv-x="540" 
 />
    <glyph glyph-name="otilde" unicode="&#xf5;" horiz-adv-x="540" 
 />
    <glyph glyph-name="odieresis" unicode="&#xf6;" horiz-adv-x="540" 
 />
    <glyph glyph-name="divide" unicode="&#xf7;" horiz-adv-x="540" 
 />
    <glyph glyph-name="oslash" unicode="&#xf8;" 
 />
    <glyph glyph-name="ugrave" unicode="&#xf9;" horiz-adv-x="1398" 
d="M1075 -35h-180l20 96q-127 -118 -280 -118q-80 0 -135 37q-57 38 -68 94q-12 53 10 155l54 252l57 277h182l-114 -535q-15 -76 -15 -104q4 -27 27 -45q28 -21 65 -21q63 0 127 41q69 45 95 86q32 46 49 133l37 168l57 277h180l-108 -508zM1044 926h-145l-147 215h176z
" />
    <glyph glyph-name="uacute" unicode="&#xfa;" horiz-adv-x="1400" 
d="M1075 -35h-180l20 96q-127 -118 -280 -118q-80 0 -135 37q-57 38 -68 94q-12 53 10 155l54 252l57 277h182l-114 -535q-15 -76 -15 -104q4 -27 27 -45q28 -21 65 -21q63 0 127 41q69 45 95 86q32 46 49 133l37 168l57 277h180l-108 -508zM1198 1141l-237 -215h-146
l209 215h174z" />
    <glyph glyph-name="ucircumflex" unicode="&#xfb;" 
 />
    <glyph glyph-name="udieresis" unicode="&#xfc;" 
 />
    <glyph glyph-name="yacute" unicode="&#xfd;" 
 />
    <glyph glyph-name="thorn" unicode="&#xfe;" 
 />
    <glyph glyph-name="ydieresis" unicode="&#xff;" horiz-adv-x="540" 
 />
    <glyph glyph-name="Lslash" unicode="&#x141;" 
 />
    <glyph glyph-name="lslash" unicode="&#x142;" 
 />
    <glyph glyph-name="OE" unicode="&#x152;" horiz-adv-x="540" 
 />
    <glyph glyph-name="oe" unicode="&#x153;" horiz-adv-x="540" 
 />
    <glyph glyph-name="Scaron" unicode="&#x160;" 
 />
    <glyph glyph-name="scaron" unicode="&#x161;" 
 />
    <glyph glyph-name="Ydieresis" unicode="&#x178;" horiz-adv-x="540" 
 />
    <glyph glyph-name="Zcaron" unicode="&#x17d;" 
 />
    <glyph glyph-name="zcaron" unicode="&#x17e;" 
 />
    <glyph glyph-name="florin" unicode="&#x192;" 
 />
    <glyph glyph-name="pi" unicode="&#x3c0;" 
 />
    <glyph glyph-name="endash" unicode="&#x2013;" horiz-adv-x="540" 
 />
    <glyph glyph-name="emdash" unicode="&#x2014;" horiz-adv-x="540" 
 />
    <glyph glyph-name="quoteleft" unicode="&#x2018;" horiz-adv-x="466" 
d="M850 1477l-408 -666h-125l347 666h186z" />
    <glyph glyph-name="quoteright" unicode="&#x2019;" horiz-adv-x="466" 
d="M850 1477l-408 -666h-125l347 666h186z" />
    <glyph glyph-name="quotesinglbase" unicode="&#x201a;" horiz-adv-x="540" 
 />
    <glyph glyph-name="quotedblleft" unicode="&#x201c;" horiz-adv-x="1232" 
d="M850 1477l-408 -666h-125l347 666h186zM1364 1477l-408 -666h-125l347 666h186z" />
    <glyph glyph-name="quotedblright" unicode="&#x201d;" horiz-adv-x="1232" 
d="M850 1477l-408 -666h-125l347 666h186zM1364 1477l-408 -666h-125l347 666h186z" />
    <glyph glyph-name="quotedblbase" unicode="&#x201e;" horiz-adv-x="540" 
 />
    <glyph glyph-name="dagger" unicode="&#x2020;" 
 />
    <glyph glyph-name="daggerdbl" unicode="&#x2021;" horiz-adv-x="540" 
 />
    <glyph glyph-name="bullet" unicode="&#x2022;" 
 />
    <glyph glyph-name="ellipsis" unicode="&#x2026;" 
 />
    <glyph glyph-name="perthousand" unicode="&#x2030;" horiz-adv-x="540" 
 />
    <glyph glyph-name="guilsinglleft" unicode="&#x2039;" horiz-adv-x="540" 
 />
    <glyph glyph-name="guilsinglright" unicode="&#x203a;" horiz-adv-x="540" 
 />
    <glyph glyph-name="fraction" unicode="&#x2044;" horiz-adv-x="2641" 
d="M2673 1452l-918 -1501h-270l919 1501h269z" />
    <glyph glyph-name="Euro" unicode="&#x20ac;" horiz-adv-x="540" 
 />
    <glyph glyph-name="trademark" unicode="&#x2122;" 
 />
    <glyph glyph-name="Omega" unicode="&#x2126;" 
 />
    <glyph glyph-name="partialdiff" unicode="&#x2202;" 
 />
    <glyph glyph-name="Delta" unicode="&#x2206;" 
 />
    <glyph glyph-name="product" unicode="&#x220f;" 
 />
    <glyph glyph-name="summation" unicode="&#x2211;" 
 />
    <glyph glyph-name="minus" unicode="&#x2212;" horiz-adv-x="2299" 
d="M2384 332h-518l41 186h518z" />
    <glyph glyph-name="radical" unicode="&#x221a;" 
 />
    <glyph glyph-name="infinity" unicode="&#x221e;" 
 />
    <glyph glyph-name="integral" unicode="&#x222b;" 
 />
    <glyph glyph-name="approxequal" unicode="&#x2248;" 
 />
    <glyph glyph-name="notequal" unicode="&#x2260;" 
 />
    <glyph glyph-name="lessequal" unicode="&#x2264;" 
 />
    <glyph glyph-name="greaterequal" unicode="&#x2265;" 
 />
    <glyph glyph-name="lozenge" unicode="&#x25ca;" horiz-adv-x="540" 
 />
    <glyph glyph-name="apple" unicode="&#xf8ff;" horiz-adv-x="540" 
 />
    <glyph glyph-name="fi" unicode="&#xfb01;" horiz-adv-x="540" 
 />
    <glyph glyph-name="fl" unicode="&#xfb02;" horiz-adv-x="540" 
 />
    </font>
</defs>
</svg>
