<?xml version="1.0" standalone="no"?>
<!DOCTYPE svg PUBLIC "-//W3C//DTD SVG 1.1//EN" "http://www.w3.org/Graphics/SVG/1.1/DTD/svg11.dtd" >
<svg xmlns="http://www.w3.org/2000/svg" xmlns:xlink="http://www.w3.org/1999/xlink" version="1.1">
<metadata>
Created by FontForge 20170731 at Sun Jul 12 20:57:23 2020
 By Aleksey,,,
Copyright (c) 2016 by Cristina Pagnotta. All rights reserved.
</metadata>
<defs>
<font id="Audrey-Medium" horiz-adv-x="2048" >
  <font-face 
    font-family="Audrey Med"
    font-weight="500"
    font-stretch="normal"
    units-per-em="2048"
    panose-1="0 0 0 0 0 0 0 0 0 0"
    ascent="1423"
    descent="-625"
    x-height="723"
    cap-height="1499"
    bbox="-39 -567 2556 1829"
    underline-thickness="102"
    underline-position="-307"
    unicode-range="U+0009-FB02"
  />
<missing-glyph 
 />
    <glyph glyph-name=".notdef" 
 />
    <glyph glyph-name=".null" horiz-adv-x="0" 
 />
    <glyph glyph-name="nonmarkingreturn" horiz-adv-x="682" 
 />
    <glyph glyph-name="HT" unicode="&#x9;" 
 />
    <glyph glyph-name="LF" unicode="&#xa;" 
 />
    <glyph glyph-name="CR" unicode="&#xd;" 
 />
    <glyph glyph-name="DLE" 
 />
    <glyph glyph-name="DC1" 
 />
    <glyph glyph-name="DC2" 
 />
    <glyph glyph-name="DC3" 
 />
    <glyph glyph-name="DC4" 
 />
    <glyph glyph-name="RS" 
 />
    <glyph glyph-name="US" 
 />
    <glyph glyph-name="space" unicode=" " horiz-adv-x="540" 
 />
    <glyph glyph-name="exclam" unicode="!" horiz-adv-x="636" 
d="M403 -25q-38 -38 -98 -38q-59 0 -96 40q-41 41 -41 97q0 57 41 98q39 39 96 39q59 0 98 -39q41 -41 41 -98q0 -58 -41 -99zM418 1137l-64 -768h-92l-63 768q-19 235 -23 288h262q-3 -62 -11 -166.5t-9 -121.5z" />
    <glyph glyph-name="quotedbl" unicode="&#x22;" horiz-adv-x="1232" 
d="M537 1477l-267 -666h-127l207 666h187zM1051 1477l-267 -666h-127l207 666h187z" />
    <glyph glyph-name="numbersign" unicode="#" horiz-adv-x="1566" 
d="M1427 516l-55 -172h-1247l47 119zM936 1405l-569 -1479h-125l512 1479h182zM1470 1405l-569 -1479h-125l512 1479h182zM1536 1001l-57 -170h-1246l46 117z" />
    <glyph glyph-name="dollar" unicode="$" horiz-adv-x="901" 
d="M612 -12v407q-73 47 -102 62q-9 5 -27.5 16t-27.5 16v-503q14 -6 34 -9q63 -8 123 11zM717 307l-2 -246q37 46 43 103q9 81 -41 143zM350 889v135q-9 -20 -12 -47q-6 -45 12 -88zM612 678v424q-35 15 -71 18q-46 6 -86 -4v-336q42 -35 133 -88zM803 -47q-37 -27 -88 -47
v-119h-103v94q-66 -7 -118 0q-21 0 -39 6v-100h-105v137q-150 75 -231 207l69 76q97 -137 162 -178v526q-41 29 -53 39q-75 60 -113 147q-36 81 -26 181q15 143 125 225q27 22 67 39v127h105v-99q80 9 157 -14v113h103v-154q61 -40 133 -135l-82 -66q-38 58 -47 68l-4 4
v-416q75 -48 94 -63q73 -55 111 -141q38 -84 26 -193q-18 -170 -143 -264z" />
    <glyph glyph-name="percent" unicode="%" horiz-adv-x="1634" 
d="M410 1278q-27 45 -72 45q-43 0 -74 -45q-18 -28 -32.5 -97t-14.5 -169q0 -99 14.5 -167.5t32.5 -96.5q26 -46 74 -46q30 0 47 11.5t29 40.5q43 97 43 258q0 100 -14.5 169t-32.5 97zM1475 649q-31 45 -74 45q-45 0 -72 -45q-18 -28 -32.5 -97t-14.5 -169q0 -99 13.5 -168
t31.5 -96q17 -26 33.5 -35.5t40.5 -9.5q30 0 47.5 11t30.5 40q43 97 43 258q0 100 -14.5 169t-32.5 97zM537 725q-76 -119 -199 -119t-199 119q-73 110 -73 287q0 178 73 288q76 117 199 117q120 0 199 -117q71 -107 71 -288q0 -180 -71 -287zM1335 1415l-776 -1442h-121
l779 1442h118zM1602 96q-79 -119 -201 -119q-120 0 -199 119q-72 109 -72 287q0 180 72 289q79 116 199 116q122 0 198 -116q74 -112 74 -289q0 -175 -71 -287z" />
    <glyph glyph-name="ampersand" unicode="&#x26;" horiz-adv-x="1097" 
d="M723 233l-367 492q-69 -47 -129 -135q-55 -85 -55 -160q0 -136 82 -227q92 -105 219 -105q58 0 121 33.5t119 93.5zM616 1219q-22 61 -75 84q-24 12 -58 12q-65 0 -102 -43q-39 -42 -39 -107q0 -37 30 -90t101 -153q85 53 119.5 108.5t34.5 120.5q0 31 -11 68zM938 -61
l-154 211l-2 -3l-39 -43q-74 -79 -168.5 -119t-191.5 -42q-67 0 -143 30q-74 26 -138 84q-59 56 -96 131q-35 71 -35 168q3 145 78 238q79 100 246 215q-64 90 -99.5 163.5t-35.5 139.5q0 118 90 211q92 92 229 92q134 0 219 -69q88 -68 88 -187q0 -187 -251 -321l335 -445
l193 207h96l15 -31l-240 -262l276 -368h-272z" />
    <glyph glyph-name="quotesingle" unicode="'" horiz-adv-x="716" 
d="M537 1456l-267 -665h-127l207 665h187z" />
    <glyph glyph-name="parenleft" unicode="(" horiz-adv-x="724" 
d="M559 -408h-110q-287 353 -287 779q0 394 278 747h121q-27 -33 -58 -87t-65.5 -141.5t-59 -188t-32 -231t7 -265.5t66.5 -295.5t139 -317.5z" />
    <glyph glyph-name="parenright" unicode=")" horiz-adv-x="827" 
d="M348 -408h-121q27 33 58 87t65.5 141.5t59 188t32 231t-7 265.5t-66.5 295.5t-139 317.5h111q287 -356 287 -778q0 -394 -279 -748z" />
    <glyph glyph-name="asterisk" unicode="*" horiz-adv-x="1431" 
d="M1120 891l-137 -238q-28 24 -68.5 57.5t-46.5 39.5l-157 133l39 -205q10 -57 24 -150h-272q11 84 24 150l39 207l-159 -135q-36 -31 -115 -95l-137 236q88 33 141 51l197 70l-197 69q-31 10 -141 52l137 237q65 -52 115 -96l157 -135l-37 202q-14 83 -24 148h272
q-10 -68 -26 -148l-37 -202l157 135q8 7 25 21.5t44.5 37t45.5 37.5l137 -237q-100 -40 -141 -52l-197 -69l197 -70q51 -15 141 -51z" />
    <glyph glyph-name="plus" unicode="+" horiz-adv-x="962" 
d="M1026 575h-405v-417h-150v417h-405v138h405v417h150v-417h405v-138z" />
    <glyph glyph-name="comma" unicode="," horiz-adv-x="759" 
d="M571 180l-297 -635h-135l230 635h202z" />
    <glyph glyph-name="hyphen" unicode="-" horiz-adv-x="913" 
d="M698 332h-518v186h518v-186z" />
    <glyph glyph-name="period" unicode="." horiz-adv-x="671" 
d="M408 -20q-41 -41 -97 -41q-58 0 -98 43q-39 39 -39 96t39 96q44 41 98 41q58 0 99 -41q39 -39 39 -96q0 -60 -41 -98z" />
    <glyph glyph-name="slash" unicode="/" horiz-adv-x="1157" 
d="M1079 1452l-731 -1501h-270l731 1501h270z" />
    <glyph glyph-name="zero" unicode="0" horiz-adv-x="1390" 
d="M856 1266q-33 53 -71 75.5t-91 22.5q-52 0 -89.5 -22.5t-72.5 -75.5q-38 -59 -67 -195t-29 -334t28.5 -333.5t67.5 -194.5q33 -53 71 -75.5t91 -22.5q65 0 105 26t67 88q86 189 86 512q0 198 -28.5 335t-67.5 194zM1061 193q-72 -113 -161 -166.5t-206 -53.5
q-115 0 -203.5 53t-160.5 164q-137 207 -137 547q0 343 137 547q72 110 160.5 162.5t203.5 52.5q116 0 204.5 -52t162.5 -163q137 -207 137 -547q0 -337 -137 -544z" />
    <glyph glyph-name="one" unicode="1" horiz-adv-x="1390" 
d="M893 -27h-39h-147h-74v1416l-53 -3h-82v76v37h395v-74v-1452z" />
    <glyph glyph-name="two" unicode="2" horiz-adv-x="1390" 
d="M1112 811q-66 -120 -309 -354q-103 -101 -262 -226h618v-73v-185h-26h-9h-202h-521h-188v99v4l4 41q121 88 152 112q89 72 184 170q199 208 285 359q84 141 84 293q0 172 -80 252q-80 77 -201 77q-98 0 -182 -73q-46 -38 -76 -93l-14 -24l-121 57l18 29q52 78 109 121
q144 102 319 102q188 0 332 -106q152 -112 152 -328q0 -131 -66 -254z" />
    <glyph glyph-name="three" unicode="3" horiz-adv-x="1390" 
d="M821 860q104 -20 185 -115q106 -115 106 -290q0 -210 -154 -346q-82 -72 -167 -104t-195 -32q-102 0 -193 31l-65 25l129 121l31 -17q46 -27 94 -27q121 0 194 82q78 84 78 271q0 145 -55 213q-52 63 -121 63q-39 0 -88 -35l-37 -24l-88 123q9 5 32.5 21t37.5 24
q168 108 221 176q47 62 47 162q0 90 -45 135q-47 47 -127 47q-83 0 -149 -51q-12 -10 -21 -18.5t-17 -23t-10.5 -19t-11.5 -26.5t-10 -26l-156 92l29 39q22 32 59 64q118 104 318 104q94 0 158.5 -19.5t121.5 -68.5q109 -92 109 -209q0 -102 -74 -188q-47 -54 -81.5 -87
t-84.5 -67z" />
    <glyph glyph-name="four" unicode="4" horiz-adv-x="1390" 
d="M664 588v493l-353 -493h353zM1239 461h-39h-260v-488h-41h-158h-77v488h-138h-374v102q2 7 169 241t333 464l167 231h119v-262v-649h299v-127z" />
    <glyph glyph-name="five" unicode="5" horiz-adv-x="1390" 
d="M961 131q-152 -158 -416 -158q-117 0 -199 33l-47 17l115 108l20 -16q50 -31 115 -31q131 0 219 98q90 104 90 334q0 212 -74 295q-70 82 -168 82q-130 0 -217 -139l-8 -15h-18h-92v535v141v12v72h690v-252h-47h-13h-125h-383v-327q113 96 248 96q190 0 326 -142
q133 -142 133 -350q0 -235 -149 -393z" />
    <glyph glyph-name="six" unicode="6" horiz-adv-x="1390" 
d="M922 676q-21 58 -80 102q-59 41 -127 41q-95 0 -172 -71q-74 -71 -74 -265q0 -90 29 -188q27 -88 88 -137q56 -47 129 -47q111 0 168 84q61 95 61 288q0 125 -22 193zM475 862q35 29 80 53q85 43 178 43q198 0 340 -139q71 -69 95 -156t24 -194q0 -104 -23 -189t-90 -157
q-141 -150 -352 -150q-179 0 -309 111q-123 111 -172 268q-47 158 -47 324q0 348 161 581q165 242 447 242q47 0 115 -14l49 -10l-51 -138l-41 15q-33 10 -101 10q-148 0 -223 -125q-74 -129 -80 -375z" />
    <glyph glyph-name="seven" unicode="7" horiz-adv-x="1390" 
d="M1145 1499l-35 -100q-6 -15 -135 -378t-242.5 -675t-132.5 -352l-8 -21h-21h-82h-45l17 43q62 172 452 1227h-378h-27h-252v170v12v74h889z" />
    <glyph glyph-name="eight" unicode="8" horiz-adv-x="1390" 
d="M850 637q-65 59 -166 59t-152 -69q-55 -80 -55 -217q0 -95 21 -174q17 -55 67 -91q45 -36 123 -36q101 0 162 55q61 54 61 233q0 182 -61 240zM823 1309q-47 59 -133 59q-75 0 -125 -53q-51 -57 -51 -185q0 -159 47 -233q40 -63 123 -63q98 0 141 61q49 71 49 217
q0 134 -51 197zM1016 86q-139 -113 -322 -113q-186 0 -325 121q-138 123 -138 301q0 159 101 269q58 67 139 108q-49 30 -102 90q-93 110 -93 248q0 170 125 283q120 106 293 106q161 0 287 -104q135 -105 135 -285q0 -141 -86 -244q-43 -55 -108 -94q62 -30 118 -86
q119 -113 119 -285q0 -199 -143 -315z" />
    <glyph glyph-name="nine" unicode="9" horiz-adv-x="1390" 
d="M897 1182q-23 82 -86 135q-56 47 -129 47q-113 0 -170 -84q-74 -110 -74 -289q0 -87 37 -192q21 -59 80 -103q56 -41 127 -41q94 0 170 70q74 74 74 266q0 89 -29 191zM922 610q-43 -32 -80 -51q-85 -43 -180 -43q-198 0 -340 139q-129 129 -129 351q0 213 124 346
q138 147 353 147q184 0 307 -108q121 -107 172 -269q49 -154 49 -323q0 -342 -162 -580q-169 -246 -448 -246q-119 0 -226 52l-53 28l133 125l31 -37q6 -7 13.5 -12t18.5 -8t19.5 -5t23.5 -2.5t22.5 -0.5h25h22.5q146 0 224 125q74 129 80 372z" />
    <glyph glyph-name="colon" unicode=":" horiz-adv-x="649" 
d="M410 -20q-44 -41 -99 -41q-58 0 -98 43q-39 42 -39 96q0 55 41 96t96 41q58 0 99 -41t41 -96q0 -57 -41 -98zM410 705q-44 -41 -99 -41q-58 0 -98 43q-39 42 -39 96t39 96q41 41 98 41q58 0 99 -41t41 -96q0 -57 -41 -98z" />
    <glyph glyph-name="semicolon" unicode=";" horiz-adv-x="763" 
d="M567 166l-297 -635h-133l228 635h202zM557 705q-44 -41 -98 -41q-59 0 -99 43q-38 41 -38 96t38 96q41 41 99 41q57 0 98 -41t41 -96q0 -57 -41 -98z" />
    <glyph glyph-name="less" unicode="&#x3c;" horiz-adv-x="540" 
 />
    <glyph glyph-name="equal" unicode="=" horiz-adv-x="2836" 
d="M2494 467h-960v149h960v-149zM2494 799h-960v149h960v-149z" />
    <glyph glyph-name="greater" unicode="&#x3e;" horiz-adv-x="540" 
 />
    <glyph glyph-name="question" unicode="?" horiz-adv-x="927" 
d="M377 -16q-41 -41 -98 -41q-59 0 -99 43q-39 39 -39 96q0 60 41 98q39 39 97 39q59 0 98 -39q41 -41 41 -98t-41 -98zM676 772q-88 -98 -219 -98q-71 0 -109 22l-22 -325h-97l-14 448h131q31 -33 70 -33q65 0 98 68q37 70 37 227q0 142 -57 199q-56 59 -132 59
q-72 0 -131 -39l-79 80q119 58 219 58q186 0 291 -123q90 -108 90 -295q0 -163 -76 -248z" />
    <glyph glyph-name="at" unicode="@" horiz-adv-x="550" 
 />
    <glyph glyph-name="A" unicode="A" horiz-adv-x="1619" 
d="M918 614l-220 529l-213 -529h433zM1464 -27h-284l-117 287l-107 256h-505l-209 -543h-131l630 1526h76z" />
    <glyph glyph-name="B" unicode="B" horiz-adv-x="1380" 
d="M815 649q-91 78 -323 78h-66v-639h160q90 0 147 14.5t92 51.5q80 83 80 247q0 170 -90 248zM801 1278q-31 57 -90 86q-64 33 -215 33q-10 0 -34 -1t-36 -1v-566q10 -2 29 -2q220 0 301 68q75 66 75 219q0 106 -30 164zM1100 139q-85 -104 -223 -135q-119 -31 -349 -31
h-364v1526h321q625 0 625 -371q0 -156 -113 -247q-67 -58 -180 -93q154 -31 242 -110q129 -114 129 -283q0 -149 -88 -256z" />
    <glyph glyph-name="C" unicode="C" horiz-adv-x="1345" 
d="M850 -27q-316 0 -522 203q-203 206 -203 535q0 218 94 407q92 194 262 289q167 92 367 92q165 0 299 -67q131 -66 203 -152l6 -29l-74 -69q-55 81 -92 106q-137 107 -311 107q-212 0 -336 -170q-125 -175 -125 -504q0 -309 137 -475q136 -160 338 -160q111 0 223 53
q87 40 168 158l80 -82q-214 -242 -514 -242z" />
    <glyph glyph-name="D" unicode="D" horiz-adv-x="1671" 
d="M1151 1022q-46 140 -131 225q-83 89 -186 119q-109 31 -271 31q-51 0 -141 -4v-1317h201q190 0 303 49q118 51 192 194q80 148 80 379q0 181 -47 324zM1434 414q-53 -141 -140 -230q-91 -94 -204 -139q-116 -47 -218 -59q-110 -13 -284 -13h-426v1528l430 -2
q333 0 518 -102q191 -104 281 -279q92 -176 92 -403q0 -164 -49 -301z" />
    <glyph glyph-name="E" unicode="E" horiz-adv-x="1173" 
d="M1067 1399h-477h-170v-291v-43v-240h123h301v-100h-295h-129v-156v-32v-56v-102v-303h166h477v-101h-907v404v102v88v541v391h911v-102z" />
    <glyph glyph-name="F" unicode="F" horiz-adv-x="987" 
d="M1055 1399h-477h-168v-295v-43v-236h120h304v-100h-297h-127v-160v-35v-53v-102v-402h-265v400v104v88v541v393h910v-100z" />
    <glyph glyph-name="G" unicode="G" horiz-adv-x="1622" 
d="M1352 147q-102 -86 -154 -104q-188 -70 -340 -70q-315 0 -524 209q-211 208 -211 529q0 311 199 551q200 237 542 237q301 0 492 -219v-27l-76 -79q-47 70 -82 102q-127 121 -311 121q-193 0 -332 -142q-141 -138 -141 -510t137 -518q134 -149 338 -149q108 0 186 41
q80 42 107 98q26 48 26 150v286h256v-258l-24 25q38 -169 -88 -273z" />
    <glyph glyph-name="H" unicode="H" horiz-adv-x="1656" 
d="M1442 -27h-262v752h-738v-752h-262v1526h262v-674h738v674h262v-1526z" />
    <glyph glyph-name="I" unicode="I" horiz-adv-x="657" 
d="M442 -27h-262v410v725v391h262v-391v-725v-410z" />
    <glyph glyph-name="J" unicode="J" horiz-adv-x="1001" 
d="M772 301q-11 -80 -72 -164q-56 -76 -153 -121q-93 -43 -217 -43q-46 0 -97 15q-24 8 -34 12q-5 2 -12 6t-23 12t-37 19l88 63q36 -16 64 -24.5t37 -9.5h10q89 0 147 55q64 58 76 133q18 99 18 276v762v207h219v-207v-762q0 -140 -14 -229z" />
    <glyph glyph-name="K" unicode="K" horiz-adv-x="1632" 
d="M1235 283l307 -310h-364l-236 254l43 17q-32 2 -56.5 12t-34.5 18.5t-30 28.5l-403 404l-74 -70v-258v-406h-264v406v725v395h264v-395v-326l391 359q0 6 8 14l388 348h145l-320 -299q-9 -9 -38.5 -37.5t-49.5 -46.5l-32 -37l-224 -202l531 -541q6 -6 21.5 -18.5
t21.5 -18.5l-45 -18q9 -2 16 -4t12 -3.5t8.5 -2.5t5.5 -2l3 -1.5t1 -1.5h1l-4 29q4 -4 8 -12z" />
    <glyph glyph-name="L" unicode="L" horiz-adv-x="1284" 
d="M1204 -27h-1075v406v725v395h262v-1423h813v-103z" />
    <glyph glyph-name="M" unicode="M" horiz-adv-x="1931" 
d="M1718 -27h-264v420v819l-547 -1239h-84l-542 1239v-743v-496h-101v502v643v381h246l524 -1184l523 1184h245v-381v-725v-420z" />
    <glyph glyph-name="N" unicode="N" horiz-adv-x="1562" 
d="M1350 -27h-78l-996 1309v-924v-348h-100v348v764v377h262l799 -1067v785v282h113v-299v-1227z" />
    <glyph glyph-name="O" unicode="O" horiz-adv-x="1835" 
d="M1245 1229q-66 87 -149 127.5t-205 40.5q-116 0 -186 -38t-140 -126q-131 -166 -131 -494q0 -333 131 -499q70 -87 144 -124.5t198 -37.5q111 0 189.5 39t146.5 123q63 78 87 196.5t24 300.5q0 178 -24 296t-85 196zM1425 186q-115 -111 -237 -162t-295 -51
q-169 0 -289 51t-235 162q-226 210 -226 562q0 338 228 546q119 107 237.5 156t282.5 49t283.5 -48.5t240.5 -154.5q232 -206 232 -557q0 -340 -222 -553z" />
    <glyph glyph-name="P" unicode="P" horiz-adv-x="1265" 
d="M762 1309q-77 77 -270 77q-63 0 -86 -2v-614h77q148 0 197 16q72 22 115 91q49 70 49 184q0 172 -82 248zM1067 854q-52 -88 -166 -145q-50 -24 -136 -32.5t-226 -8.5h-133v-299q0 -11 -1 -78.5t1 -67.5l-25 25q11 -11 17.5 -80t7.5 -132v-63h-261v396v716v414h324
q218 0 356 -41q125 -36 213 -137q84 -97 84 -244q0 -125 -55 -223z" />
    <glyph glyph-name="Q" unicode="Q" horiz-adv-x="1812" 
d="M727 100q8 4 14 6q86 16 168 13q29 -1 75.5 -7.5t51.5 -7.5q6 0 8 -2q103 42 181 138q61 75 84.5 193.5t23.5 301.5q0 177 -23 295t-83 195q-68 87 -150.5 127.5t-204.5 40.5q-79 0 -137 -19t-99 -52.5t-87 -92.5q-131 -166 -131 -492q0 -331 131 -497q84 -108 178 -140z
M1405 184q-101 -94 -201 -143q76 -38 150.5 -102.5t169.5 -174.5l-162 -40q-130 191 -307 268q-101 -19 -181 -19q-167 0 -287 51t-235 160q-225 209 -225 559q0 342 227 547q120 107 237.5 156t280.5 49q164 0 284 -48.5t239 -154.5q229 -204 229 -555q0 -343 -219 -553z
" />
    <glyph glyph-name="R" unicode="R" horiz-adv-x="1466" 
d="M797 1315q-57 71 -318 71l-65 3v-615h145q24 0 74 12q15 4 39 12t28 9q42 12 93 59q36 36 55 86q20 62 20 138q0 142 -71 225zM795 717q38 -24 53 -37q86 -62 180 -186q12 -17 34.5 -52t90.5 -169.5t135 -299.5h-225q-5 24 -19.5 66.5t-43.5 110t-65 136t-88 139.5
t-109.5 125.5t-132.5 89t-154 34.5l-37 2v-285v-418h-260v418v713v395h346q227 0 344 -35q148 -45 223 -127q86 -95 86 -227q0 -155 -113 -262q-99 -96 -245 -131z" />
    <glyph glyph-name="S" unicode="S" horiz-adv-x="1243" 
d="M893 57q-139 -107 -352 -82q-110 11 -232 89.5t-192 191.5l73 82q94 -134 167 -188.5t178 -71.5q130 -20 219 53q83 71 92 164q9 98 -47 166q-58 73 -238 174q-155 84 -244 156q-88 69 -127 165q-42 96 -30 203q18 163 141 258q122 94 293 76q96 -9 174 -49
q75 -37 172 -166l-86 -70q-34 55 -53 76q-85 97 -205 109q-113 11 -172 -41q-60 -60 -66 -127q-9 -86 50 -154q66 -76 239 -176q178 -104 252 -160q81 -61 125 -160q43 -101 31 -221q-21 -189 -162 -297z" />
    <glyph glyph-name="T" unicode="T" horiz-adv-x="1462" 
d="M1593 1399h-399h-217v-1010v-416h-262v416v1010h-191h-420l5 100h1482z" />
    <glyph glyph-name="U" unicode="U" horiz-adv-x="1605" 
d="M1370 365q-13 -86 -96 -191q-73 -91 -205 -145q-133 -56 -299 -56q-200 0 -340 70q-139 66 -201 182q-68 123 -57 295l10 148v452v379h260v-379v-458q0 -148 2 -203q3 -92 13 -129q19 -97 104 -160q94 -70 258 -70q128 0 234 47q103 48 153 117q54 73 66 142
q20 132 20 245v496v352h101v-371v-485q0 -142 -23 -278z" />
    <glyph glyph-name="V" unicode="V" horiz-adv-x="1662" 
d="M1516 1499l-207 -491l-435 -1035h-100l-504 1157l-14 31q-19 42 -29 74q-3 6 -12.5 28t-15.5 31l-88 205h270l133 -295l391 -903l309 739q9 25 50 127l129 332h123z" />
    <glyph glyph-name="W" unicode="W" horiz-adv-x="2455" 
d="M2308 1499l-207 -491l-434 -1035h-100l-353 811l-340 -811h-100l-504 1155l-14 27q-5 10 -15 38t-14 38q-4 7 -13 29.5t-15 31.5l-88 207h270l133 -295l391 -905l328 799h121l344 -797l309 735q29 80 49 129l129 334h123z" />
    <glyph glyph-name="X" unicode="X" horiz-adv-x="1818" 
d="M436 1499l223 -280l3 2l260 -316l225 281q19 25 40.5 52t34 42t17.5 23l158 196h137l-260 -321q-9 -12 -30.5 -36.5t-33.5 -39.5l-221 -277l371 -450q37 -47 95 -114t65 -75l182 -213h-367l-172 226q-6 7 -21 28t-34.5 46.5t-40.5 50.5l-244 299l-211 -256
q-19 -23 -45.5 -58t-31.5 -41l-230 -295h-141l270 338q14 16 43 54t45 57l234 283l-375 448l-125 152q-5 5 -15.5 15t-15.5 15l-141 164h352z" />
    <glyph glyph-name="Y" unicode="Y" horiz-adv-x="1642" 
d="M1516 1499l-560 -921v-605h-262v590l-583 936h327l465 -803l463 803h150z" />
    <glyph glyph-name="Z" unicode="Z" horiz-adv-x="1325" 
d="M1227 1411l-922 -1335h397h510v-103h-1239v76l920 1350h-408h-409l2 100h1149v-88z" />
    <glyph glyph-name="bracketleft" unicode="[" horiz-adv-x="1792" 
d="M440 1106h13h30h13v-27h-13h-30h-13v27zM1479 -408h-191h-133q-13 11 -20 29t-8 31l-1 12v1364v72h29h133h191v-96h-166l2 -1315h164v-97z" />
    <glyph glyph-name="backslash" unicode="\" horiz-adv-x="1275" 
d="M1137 -61h-271l-723 1488h269z" />
    <glyph glyph-name="bracketright" unicode="]" horiz-adv-x="757" 
d="M520 -408h-160h-190v97h164v1315h-164v96h188h136q12 -12 18.5 -30t7.5 -30v-12v-1364v-72z" />
    <glyph glyph-name="asciicircum" unicode="^" horiz-adv-x="2471" 
d="M598 1487h12h43h13v-25h-13h-43h-12v25zM2556 688h-291l-321 483l-320 -483h-135l506 813h41z" />
    <glyph glyph-name="underscore" unicode="_" 
 />
    <glyph glyph-name="grave" unicode="`" 
 />
    <glyph glyph-name="a" unicode="a" horiz-adv-x="1030" 
d="M623 170v244l-64 -27q-217 -86 -217 -215q0 -46 23 -76q24 -24 59 -24q76 0 199 98zM623 -45v55v49q-70 -45 -129 -71q-78 -35 -144 -35q-77 0 -135.5 69t-58.5 132q0 55 18.5 93t67.5 75q100 75 256 139l125 49v20q0 60 -9 105q-7 25 -41 47q-38 23 -96 23
q-50 0 -84.5 -11.5t-73.5 -40.5l-67 68q61 39 117 56.5t127 17.5q121 0 192 -39q72 -43 94 -94q23 -61 23 -152v-299v-258q-30 2 -182 2z" />
    <glyph glyph-name="b" unicode="b" horiz-adv-x="1136" 
d="M694 614q-57 76 -149 76q-107 0 -211 -104v-432q4 -10 13 -21.5t16 -18t24.5 -21.5t22.5 -19q51 -39 116 -39q102 0 164 86q64 89 64 258q0 157 -60 235zM154 1257h118h27h35v-552q111 83 233 83q170 0 279 -118q98 -109 98 -310q0 -94 -23 -164t-77 -130
q-114 -123 -289 -123q-138 0 -221 86v-86h-180v1314z" />
    <glyph glyph-name="c" unicode="c" horiz-adv-x="944" 
d="M545 -57q-171 0 -283 112q-115 115 -115 301q0 189 115 301q112 115 283 115q145 0 252 -88l-62 -61q-70 51 -151 51q-117 0 -176 -86q-60 -89 -60 -232q0 -140 60 -229q59 -86 176 -86q81 0 151 51l62 -61q-107 -88 -252 -88z" />
    <glyph glyph-name="d" unicode="d" horiz-adv-x="1165" 
d="M764 154v432q-104 104 -211 104q-92 0 -152 -76q-57 -79 -57 -235q0 -169 64 -258q62 -86 163 -86q64 0 115 39q4 3 19 15t20.5 17t15.5 14.5t15 17.5t8 16zM764 1257h35h26h119v-1314h-180v86q-83 -86 -221 -86q-178 0 -289 123q-55 59 -77.5 129t-22.5 165
q0 204 98 310q109 118 278 118q120 0 234 -83v552z" />
    <glyph glyph-name="e" unicode="e" horiz-adv-x="1015" 
d="M526 696q-131 0 -164 -151h330q-4 24 -14.5 47.5t-29 48t-50 40t-72.5 15.5zM854 459h-504q0 -13 -1 -30.5t-1 -22.5q0 -187 58 -279q56 -86 159 -86q65 0 113 28t92 93l68 -68q-48 -67 -99 -96q-91 -55 -198 -55q-103 0 -191 49q-86 51 -145 143q-55 91 -55 221
q0 188 108 308q109 124 274 124q158 0 244 -96q42 -47 60 -101t18 -132z" />
    <glyph glyph-name="f" unicode="f" horiz-adv-x="821" 
d="M791 1212l-74 -71q-33 33 -58 45t-53 12q-44 0 -82 -35q-39 -36 -45 -90q-8 -55 -8 -264v-31h158v-94h-158v-328v-98v-283h-184v283v426h-140v94h140v43q0 110 10 178q9 68 55 140q45 70 117 112q87 46 170 39q49 -4 80.5 -20.5t71.5 -57.5z" />
    <glyph glyph-name="g" unicode="g" horiz-adv-x="1077" 
d="M649 649q-37 37 -108 37q-44 0 -70 -10t-43 -35q-41 -61 -41 -186q0 -112 45 -164q34 -39 113 -39q69 0 106 37q45 51 45 182q0 134 -47 178zM887 -483q-112 -84 -316 -84q-188 0 -301 73q-120 75 -120 197q0 6 2 33h122q0 -28 5.5 -53t24.5 -56t50.5 -52.5t89.5 -36.5
t136 -15q133 0 204 53q68 48 68 123q0 45 -2 55q-3 31 -23 56q-59 67 -252 67q-127 0 -200 7t-103 28q-71 47 -71 127q0 124 139 170q-147 108 -147 268q0 133 102 225q108 91 244 91q87 0 177.5 -40t127.5 -100q53 -83 53 -180q0 -122 -90 -223q-88 -96 -297 -105
q-167 -5 -186 -61q-8 -17 -2 -29t30 -16q64 -12 236 -16q36 0 123 -5q65 -4 82 -8q94 -21 151 -96q57 -72 57 -172q0 -142 -114 -225z" />
    <glyph glyph-name="h" unicode="h" horiz-adv-x="1054" 
d="M866 -25h-182v283v225q0 88 -10 133q-9 36 -43 60t-88 24q-65 0 -113 -36q-50 -34 -90 -111v-295v-283h-182v283v750v280h125h8h49v-588q106 109 248 109q101 0 168 -43q69 -44 90 -109q20 -61 20 -192v-207v-283z" />
    <glyph glyph-name="i" unicode="i" horiz-adv-x="602" 
d="M385 -27h-184v285v227v13v311h137h47v-418v-133v-285zM379 1038q-34 -37 -86 -37q-49 0 -86 37q-35 38 -35 88q0 49 35 84q37 37 86 37q52 0 86 -37q35 -35 35 -84q0 -50 -35 -88z" />
    <glyph glyph-name="j" unicode="j" horiz-adv-x="892" 
d="M684 -207q-9 -69 -51 -133q-44 -65 -119 -102q-71 -39 -168 -39q-44 0 -117 16l35 103q35 -27 60 -27h49q45 0 84 31q39 36 47 84q8 52 8 186v577v322h137h45v-831q0 -133 -10 -187zM684 1038q-34 -34 -84 -34q-53 0 -86 36q-35 38 -35 86q0 49 35 84q34 37 86 37
q49 0 86 -37q33 -33 33 -84q0 -53 -35 -88z" />
    <glyph glyph-name="k" unicode="k" horiz-adv-x="1034" 
d="M152 1184h122h35h25v-717l424 311h98v-39q-339 -247 -371 -272l422 -494h-229l-334 387l-10 -6v-96v-285h-182v285v829v97z" />
    <glyph glyph-name="l" unicode="l" horiz-adv-x="569" 
d="M180 1288h125h47h10v-1030v-285h-182v285v743v287z" />
    <glyph glyph-name="m" unicode="m" horiz-adv-x="1626" 
d="M1405 -27h-182v285v250q0 58 -9 110q-6 28 -36 52q-28 22 -80 22q-107 0 -215 -145v-289v-285h-185v285v209q0 95 -6 139q-7 37 -39 60q-29 26 -82 26q-98 0 -211 -131v-303v-285h-182v285v225v326h182v-117q117 117 261 117q97 0 165 -47q49 -37 76 -98q134 145 283 145
q97 0 162 -45q70 -51 84 -107q14 -55 14 -174v-225v-285z" />
    <glyph glyph-name="n" unicode="n" horiz-adv-x="1103" 
d="M883 -27h-185v285v209q0 95 -6 139q-7 37 -39 60q-29 26 -82 26q-98 0 -211 -131v-303v-285h-182v285v225v326h182v-117q117 117 261 117q97 0 165 -47q84 -63 91 -144q6 -24 6 -63v-297v-285z" />
    <glyph glyph-name="o" unicode="o" horiz-adv-x="1140" 
d="M705 625q-53 71 -150 71q-96 0 -149 -71q-64 -90 -64 -263q0 -176 66 -260q52 -67 147 -67q98 0 150 67q63 85 63 260q0 171 -63 263zM834 55q-112 -112 -279 -112q-165 0 -279 114q-116 116 -116 310q0 179 114 299q113 122 281 122q167 0 283 -122q112 -121 112 -299
q0 -196 -116 -312z" />
    <glyph glyph-name="p" unicode="p" horiz-adv-x="1142" 
d="M688 571q-68 74 -156 74q-106 0 -198 -110v-431q40 -48 90 -77q50 -27 102 -27q92 0 158 78q70 82 70 262q0 159 -66 231zM846 25q-110 -125 -289 -125q-119 0 -223 80v-226v-278h-180v278v672v324h180v-88q105 88 237 88q167 0 275 -117q108 -111 108 -301
q0 -184 -108 -307z" />
    <glyph glyph-name="q" unicode="q" horiz-adv-x="1173" 
d="M774 104v431q-88 110 -199 110q-88 0 -153 -74q-68 -74 -68 -231q0 -180 70 -262q69 -78 158 -78q52 0 102 27q48 26 90 77zM954 -524h-180v278v226q-104 -80 -223 -80q-179 0 -289 125q-108 123 -108 307q0 190 108 301q111 117 275 117q132 0 237 -88v88h180v-324v-672
v-278z" />
    <glyph glyph-name="r" unicode="r" horiz-adv-x="813" 
d="M653 758l-49 -101q-62 37 -99 33t-83 -47q-47 -42 -64 -98q-14 -61 -14 -154v-133v-285h-182v285v213v338h172v-115q59 73 143.5 92t175.5 -28z" />
    <glyph glyph-name="s" unicode="s" horiz-adv-x="837" 
d="M154 10l-2 78l18 12l31 -41q-2 -2 -47 -49zM537 -23q-80 -51 -187 -32q-110 21 -190 147l76 51q51 -95 129 -110q58 -9 86 16q33 24 43 68q9 46 -15 80q-25 40 -117 108q-102 79 -141 144q-42 67 -26 153q18 80 88 141q74 62 176 41q51 -9 91 -40t75 -91l-76 -51
q-26 45 -50.5 65.5t-54.5 26.5q-44 9 -71 -12q-31 -19 -37 -53q-8 -31 14 -70q32 -41 113 -100q144 -99 168 -180q22 -82 8 -144q-18 -104 -102 -158z" />
    <glyph glyph-name="t" unicode="t" horiz-adv-x="868" 
d="M602 -25q-54 -32 -123 -32q-74 0 -129 43q-54 42 -69 104q-13 48 -13 184v392h-108v92h108v231h178v-231h224v-92h-224v-418q0 -88 9 -133q5 -23 28 -43q27 -17 47 -17q26 0 50 18.5t55 65.5l70 -43q-43 -87 -103 -121z" />
    <glyph glyph-name="u" unicode="u" horiz-adv-x="1097" 
d="M864 -35h-180v96q-102 -118 -254 -118q-82 0 -143 37q-66 40 -88 94q-25 58 -25 155v252v277h182v-535q0 -74 9 -104q8 -26 34 -45q35 -21 72 -21q62 0 117 41q58 43 76 86q22 46 22 133v168v277h178v-508v-285z" />
    <glyph glyph-name="v" unicode="v" horiz-adv-x="1079" 
d="M936 758l-361 -815h-83l-369 815h196l263 -588l258 588h96z" />
    <glyph glyph-name="w" unicode="w" horiz-adv-x="1636" 
d="M1489 760l-361 -817h-86l-219 487l-215 -487h-86l-368 817h196l264 -590l205 469h107l209 -469l258 590h96z" />
    <glyph glyph-name="x" unicode="x" horiz-adv-x="1167" 
d="M1022 -27h-234l-249 314l-267 -314h-133l340 387l-338 418h234l223 -282l246 282h131l-318 -352z" />
    <glyph glyph-name="y" unicode="y" horiz-adv-x="1054" 
d="M913 723l-561 -1268h-92l207 473l-358 795h194l260 -582l254 582h96z" />
    <glyph glyph-name="z" unicode="z" horiz-adv-x="1019" 
d="M844 711l-471 -643h467v-68l-27 27q0 -24 -171 -37.5t-342 -15.5l-171 -1v64l473 647h-442v94h684v-67z" />
    <glyph glyph-name="braceleft" unicode="{" 
 />
    <glyph glyph-name="bar" unicode="|" 
 />
    <glyph glyph-name="braceright" unicode="}" 
 />
    <glyph glyph-name="asciitilde" unicode="~" 
 />
    <glyph glyph-name="DEL" horiz-adv-x="540" 
 />
    <glyph glyph-name="uni00A0" unicode="&#xa0;" 
 />
    <glyph glyph-name="exclamdown" unicode="&#xa1;" 
 />
    <glyph glyph-name="cent" unicode="&#xa2;" 
 />
    <glyph glyph-name="sterling" unicode="&#xa3;" 
 />
    <glyph glyph-name="yen" unicode="&#xa5;" 
 />
    <glyph glyph-name="brokenbar" unicode="&#xa6;" 
 />
    <glyph glyph-name="section" unicode="&#xa7;" 
 />
    <glyph glyph-name="dieresis" unicode="&#xa8;" 
 />
    <glyph glyph-name="copyright" unicode="&#xa9;" 
 />
    <glyph glyph-name="ordfeminine" unicode="&#xaa;" 
 />
    <glyph glyph-name="guillemotleft" unicode="&#xab;" 
 />
    <glyph glyph-name="logicalnot" unicode="&#xac;" 
 />
    <glyph glyph-name="registered" unicode="&#xae;" 
 />
    <glyph glyph-name="degree" unicode="&#xb0;" 
 />
    <glyph glyph-name="plusminus" unicode="&#xb1;" 
 />
    <glyph glyph-name="twosuperior" unicode="&#xb2;" 
 />
    <glyph glyph-name="threesuperior" unicode="&#xb3;" 
 />
    <glyph glyph-name="acute" unicode="&#xb4;" 
 />
    <glyph glyph-name="mu" unicode="&#xb5;" 
 />
    <glyph glyph-name="paragraph" unicode="&#xb6;" 
 />
    <glyph glyph-name="periodcentered" unicode="&#xb7;" horiz-adv-x="540" 
 />
    <glyph glyph-name="onesuperior" unicode="&#xb9;" 
 />
    <glyph glyph-name="ordmasculine" unicode="&#xba;" 
 />
    <glyph glyph-name="guillemotright" unicode="&#xbb;" 
 />
    <glyph glyph-name="onequarter" unicode="&#xbc;" 
 />
    <glyph glyph-name="onehalf" unicode="&#xbd;" 
 />
    <glyph glyph-name="threequarters" unicode="&#xbe;" 
 />
    <glyph glyph-name="questiondown" unicode="&#xbf;" 
 />
    <glyph glyph-name="Agrave" unicode="&#xc0;" horiz-adv-x="1193" 
d="M770 614l-219 529l-213 -529h432zM1317 -27h-287l-117 287l-104 256h-506l-209 -543h-133l633 1526h76zM713 1614h-146l-192 215h174z" />
    <glyph glyph-name="Aacute" unicode="&#xc1;" horiz-adv-x="1193" 
d="M770 614l-219 529l-213 -529h432zM1317 -27h-287l-117 287l-104 256h-506l-209 -543h-133l633 1526h76zM885 1829l-193 -215h-145l164 215h174z" />
    <glyph glyph-name="Acircumflex" unicode="&#xc2;" horiz-adv-x="540" 
 />
    <glyph glyph-name="Atilde" unicode="&#xc3;" horiz-adv-x="540" 
 />
    <glyph glyph-name="Adieresis" unicode="&#xc4;" 
 />
    <glyph glyph-name="Aring" unicode="&#xc5;" 
 />
    <glyph glyph-name="AE" unicode="&#xc6;" 
 />
    <glyph glyph-name="Ccedilla" unicode="&#xc7;" 
 />
    <glyph glyph-name="Egrave" unicode="&#xc8;" horiz-adv-x="1120" 
d="M887 1399h-477h-172v-291v-43v-240h122h304v-100h-297h-129v-156v-32v-56v-102v-303h168h477l-2 -101h-908v404v102v88v541v391h914v-102zM580 1614h-146l-192 215h174z" />
    <glyph glyph-name="Eacute" unicode="&#xc9;" horiz-adv-x="1120" 
d="M887 1399h-477h-172v-291v-43v-240h122h304v-100h-297h-129v-156v-32v-56v-102v-303h168h477l-2 -101h-908v404v102v88v541v391h914v-102zM694 1829l-192 -215h-146l164 215h174z" />
    <glyph glyph-name="Ecircumflex" unicode="&#xca;" horiz-adv-x="540" 
 />
    <glyph glyph-name="Edieresis" unicode="&#xcb;" horiz-adv-x="540" 
 />
    <glyph glyph-name="Igrave" unicode="&#xcc;" horiz-adv-x="540" 
 />
    <glyph glyph-name="Iacute" unicode="&#xcd;" horiz-adv-x="540" 
 />
    <glyph glyph-name="Icircumflex" unicode="&#xce;" horiz-adv-x="540" 
 />
    <glyph glyph-name="Idieresis" unicode="&#xcf;" horiz-adv-x="540" 
 />
    <glyph glyph-name="Eth" unicode="&#xd0;" 
 />
    <glyph glyph-name="Ntilde" unicode="&#xd1;" 
 />
    <glyph glyph-name="Ograve" unicode="&#xd2;" horiz-adv-x="1800" 
d="M1077 1229q-66 87 -149 127.5t-205 40.5q-116 0 -186 -38t-140 -126q-131 -166 -131 -494q0 -333 131 -499q68 -87 142.5 -124.5t199.5 -37.5q111 0 189.5 39t146.5 123q62 78 86.5 197.5t24.5 299.5q0 178 -24 296t-85 196zM1255 186q-114 -111 -235 -162t-295 -51
q-168 0 -288 51t-238 162q-226 212 -226 562q0 336 230 546q119 107 237 156t281 49q166 0 285.5 -48.5t238.5 -154.5q232 -204 232 -557q0 -340 -222 -553zM838 1614h-146l-192 215h174z" />
    <glyph glyph-name="Oacute" unicode="&#xd3;" horiz-adv-x="1800" 
d="M1077 1229q-66 87 -149 127.5t-205 40.5q-116 0 -186 -38t-140 -126q-131 -166 -131 -494q0 -333 131 -499q68 -87 142.5 -124.5t199.5 -37.5q111 0 189.5 39t146.5 123q62 78 86.5 197.5t24.5 299.5q0 178 -24 296t-85 196zM1255 186q-114 -111 -235 -162t-295 -51
q-168 0 -288 51t-238 162q-226 212 -226 562q0 336 230 546q119 107 237 156t281 49q166 0 285.5 -48.5t238.5 -154.5q232 -204 232 -557q0 -340 -222 -553zM987 1829l-192 -215h-146l164 215h174z" />
    <glyph glyph-name="Ocircumflex" unicode="&#xd4;" horiz-adv-x="540" 
 />
    <glyph glyph-name="Otilde" unicode="&#xd5;" horiz-adv-x="540" 
 />
    <glyph glyph-name="Odieresis" unicode="&#xd6;" 
 />
    <glyph glyph-name="multiply" unicode="&#xd7;" 
 />
    <glyph glyph-name="Oslash" unicode="&#xd8;" 
 />
    <glyph glyph-name="Ugrave" unicode="&#xd9;" horiz-adv-x="1531" 
d="M1174 365q-15 -86 -99 -191q-75 -93 -205 -145q-130 -56 -299 -56q-200 0 -340 70q-137 66 -200 182q-67 121 -56 295l9 148v452v379h262v-379v-458v-203q3 -83 12 -129q23 -100 107 -160q91 -70 256 -70q127 0 233 47q109 51 154 117q57 76 65 142q21 139 21 245v496
v352h100v-371v-485q0 -131 -20 -278zM799 1614h-146l-192 215h174z" />
    <glyph glyph-name="Uacute" unicode="&#xda;" horiz-adv-x="1531" 
d="M1174 365q-15 -86 -99 -191q-75 -93 -205 -145q-130 -56 -299 -56q-200 0 -340 70q-137 66 -200 182q-67 121 -56 295l9 148v452v379h262v-379v-458v-203q3 -83 12 -129q23 -100 107 -160q91 -70 256 -70q127 0 233 47q109 51 154 117q57 76 65 142q21 139 21 245v496
v352h100v-371v-485q0 -131 -20 -278zM885 1829l-193 -215h-145l164 215h174z" />
    <glyph glyph-name="Ucircumflex" unicode="&#xdb;" horiz-adv-x="540" 
 />
    <glyph glyph-name="Udieresis" unicode="&#xdc;" 
 />
    <glyph glyph-name="Yacute" unicode="&#xdd;" 
 />
    <glyph glyph-name="Thorn" unicode="&#xde;" 
 />
    <glyph glyph-name="germandbls" unicode="&#xdf;" 
 />
    <glyph glyph-name="agrave" unicode="&#xe0;" horiz-adv-x="1298" 
d="M793 170v244l-64 -27q-217 -86 -217 -215q0 -46 23 -76q21 -24 59 -24q76 0 199 98zM793 -45v55v49q-74 -45 -129 -71q-81 -35 -146 -35q-76 0 -134 69t-58 132q0 55 18.5 93t67.5 75q93 72 256 139l125 49v20q0 68 -11 105q-7 25 -41 47q-33 23 -94 23
q-50 0 -84.5 -11.5t-75.5 -40.5l-67 68q63 39 119.5 56.5t126.5 17.5q122 0 190 -39q72 -43 94 -94q25 -58 25 -152v-299v-258q-30 2 -182 2zM823 926h-145l-193 215h174z" />
    <glyph glyph-name="aacute" unicode="&#xe1;" horiz-adv-x="1300" 
d="M793 170v244l-64 -27q-217 -86 -217 -215q0 -46 23 -76q21 -24 59 -24q76 0 199 98zM793 -45v55v49q-74 -45 -129 -71q-81 -35 -146 -35q-76 0 -134 69t-58 132q0 55 18.5 93t67.5 75q93 72 256 139l125 49v20q0 68 -11 105q-7 25 -41 47q-33 23 -94 23
q-50 0 -84.5 -11.5t-75.5 -40.5l-67 68q63 39 119.5 56.5t126.5 17.5q122 0 190 -39q72 -43 94 -94q25 -58 25 -152v-299v-258q-30 2 -182 2zM911 1141l-192 -215h-146l164 215h174z" />
    <glyph glyph-name="acircumflex" unicode="&#xe2;" horiz-adv-x="540" 
 />
    <glyph glyph-name="atilde" unicode="&#xe3;" horiz-adv-x="540" 
 />
    <glyph glyph-name="adieresis" unicode="&#xe4;" horiz-adv-x="540" 
 />
    <glyph glyph-name="aring" unicode="&#xe5;" horiz-adv-x="540" 
 />
    <glyph glyph-name="ae" unicode="&#xe6;" 
 />
    <glyph glyph-name="ccedilla" unicode="&#xe7;" horiz-adv-x="540" 
 />
    <glyph glyph-name="egrave" unicode="&#xe8;" horiz-adv-x="1026" 
d="M788 696q-65 0 -105.5 -36.5t-59.5 -114.5h331q-4 24 -14.5 47.5t-29 48t-50 40t-72.5 15.5zM1116 459h-504q0 -13 -1 -30.5t-1 -22.5q0 -187 58 -279q53 -86 159 -86q64 0 113 28t92 93l68 -68q-48 -67 -99 -96q-91 -55 -198 -55q-103 0 -191 49q-86 51 -145 143
q-55 91 -55 221q0 188 108 308q109 124 275 124q153 0 243 -96q42 -47 60 -101t18 -132zM926 926h-146l-192 215h174z" />
    <glyph glyph-name="eacute" unicode="&#xe9;" horiz-adv-x="1028" 
d="M788 696q-65 0 -105.5 -36.5t-59.5 -114.5h331q-4 24 -14.5 47.5t-29 48t-50 40t-72.5 15.5zM1116 459h-504q0 -13 -1 -30.5t-1 -22.5q0 -187 58 -279q53 -86 159 -86q64 0 113 28t92 93l68 -68q-48 -67 -99 -96q-91 -55 -198 -55q-103 0 -191 49q-86 51 -145 143
q-55 91 -55 221q0 188 108 308q109 124 275 124q157 0 243 -96q42 -47 60 -101t18 -132zM1034 1141l-192 -215h-146l164 215h174z" />
    <glyph glyph-name="ecircumflex" unicode="&#xea;" horiz-adv-x="540" 
 />
    <glyph glyph-name="edieresis" unicode="&#xeb;" horiz-adv-x="540" 
 />
    <glyph glyph-name="igrave" unicode="&#xec;" horiz-adv-x="913" 
d="M573 485v-227v-285h-182v285v133v418h45h137v-311h-24q11 0 17 -3t6 -7zM571 926h-151l-168 217l199 -2z" />
    <glyph glyph-name="iacute" unicode="&#xed;" horiz-adv-x="958" 
d="M524 -27h-182v285v227v13v311h137h45v-418v-133v-285zM666 1143l-170 -217h-150l121 215z" />
    <glyph glyph-name="icircumflex" unicode="&#xee;" horiz-adv-x="540" 
 />
    <glyph glyph-name="idieresis" unicode="&#xef;" horiz-adv-x="540" 
 />
    <glyph glyph-name="eth" unicode="&#xf0;" 
 />
    <glyph glyph-name="ntilde" unicode="&#xf1;" horiz-adv-x="540" 
 />
    <glyph glyph-name="ograve" unicode="&#xf2;" horiz-adv-x="1087" 
d="M885 625q-53 71 -150 71q-96 0 -149 -71q-64 -90 -64 -263q0 -176 66 -260q52 -67 147 -67q98 0 150 67q63 85 63 260q0 171 -63 263zM1014 55q-112 -112 -279 -112q-164 0 -278 114q-117 117 -117 310q0 178 115 299q113 122 280 122q170 0 283 -122q112 -121 112 -299
q0 -199 -116 -312zM868 926h-145l-193 215h175z" />
    <glyph glyph-name="oacute" unicode="&#xf3;" horiz-adv-x="1087" 
d="M885 625q-53 71 -150 71q-96 0 -149 -71q-64 -90 -64 -263q0 -176 66 -260q52 -67 147 -67q98 0 150 67q63 85 63 260q0 171 -63 263zM1014 55q-112 -112 -279 -112q-164 0 -278 114q-117 117 -117 310q0 178 115 299q113 122 280 122q170 0 283 -122q112 -121 112 -299
q0 -199 -116 -312zM956 1141l-192 -215h-146l164 215h174z" />
    <glyph glyph-name="ocircumflex" unicode="&#xf4;" horiz-adv-x="540" 
 />
    <glyph glyph-name="otilde" unicode="&#xf5;" horiz-adv-x="540" 
 />
    <glyph glyph-name="odieresis" unicode="&#xf6;" horiz-adv-x="540" 
 />
    <glyph glyph-name="divide" unicode="&#xf7;" horiz-adv-x="540" 
 />
    <glyph glyph-name="oslash" unicode="&#xf8;" 
 />
    <glyph glyph-name="ugrave" unicode="&#xf9;" horiz-adv-x="1398" 
d="M1083 -35h-180v96q-106 -118 -256 -118q-79 0 -143 37q-66 40 -88 94q-23 53 -23 155v252v277h180v-535q0 -74 9 -104q8 -26 34 -45q35 -21 72 -21q62 0 117 41q57 42 78 86q20 48 20 133v168v277h180v-508v-285zM848 926h-146l-192 215h174z" />
    <glyph glyph-name="uacute" unicode="&#xfa;" horiz-adv-x="1400" 
d="M1083 -35h-180v96q-106 -118 -256 -118q-79 0 -143 37q-66 40 -88 94q-23 53 -23 155v252v277h180v-535q0 -74 9 -104q8 -26 34 -45q35 -21 72 -21q62 0 117 41q57 42 78 86q20 48 20 133v168v277h180v-508v-285zM956 1141l-192 -215h-146l164 215h174z" />
    <glyph glyph-name="ucircumflex" unicode="&#xfb;" 
 />
    <glyph glyph-name="udieresis" unicode="&#xfc;" 
 />
    <glyph glyph-name="yacute" unicode="&#xfd;" 
 />
    <glyph glyph-name="thorn" unicode="&#xfe;" 
 />
    <glyph glyph-name="ydieresis" unicode="&#xff;" horiz-adv-x="540" 
 />
    <glyph glyph-name="Lslash" unicode="&#x141;" 
 />
    <glyph glyph-name="lslash" unicode="&#x142;" 
 />
    <glyph glyph-name="OE" unicode="&#x152;" horiz-adv-x="540" 
 />
    <glyph glyph-name="oe" unicode="&#x153;" horiz-adv-x="540" 
 />
    <glyph glyph-name="Scaron" unicode="&#x160;" 
 />
    <glyph glyph-name="scaron" unicode="&#x161;" 
 />
    <glyph glyph-name="Ydieresis" unicode="&#x178;" horiz-adv-x="540" 
 />
    <glyph glyph-name="Zcaron" unicode="&#x17d;" 
 />
    <glyph glyph-name="zcaron" unicode="&#x17e;" 
 />
    <glyph glyph-name="florin" unicode="&#x192;" 
 />
    <glyph glyph-name="pi" unicode="&#x3c0;" 
 />
    <glyph glyph-name="endash" unicode="&#x2013;" horiz-adv-x="540" 
 />
    <glyph glyph-name="emdash" unicode="&#x2014;" horiz-adv-x="540" 
 />
    <glyph glyph-name="quoteleft" unicode="&#x2018;" horiz-adv-x="466" 
d="M537 1477l-267 -666h-127l207 666h187z" />
    <glyph glyph-name="quoteright" unicode="&#x2019;" horiz-adv-x="466" 
d="M537 1477l-267 -666h-127l207 666h187z" />
    <glyph glyph-name="quotesinglbase" unicode="&#x201a;" horiz-adv-x="540" 
 />
    <glyph glyph-name="quotedblleft" unicode="&#x201c;" horiz-adv-x="1232" 
d="M537 1477l-267 -666h-127l207 666h187zM1051 1477l-267 -666h-127l207 666h187z" />
    <glyph glyph-name="quotedblright" unicode="&#x201d;" horiz-adv-x="1232" 
d="M537 1477l-267 -666h-127l207 666h187zM1051 1477l-267 -666h-127l207 666h187z" />
    <glyph glyph-name="quotedblbase" unicode="&#x201e;" horiz-adv-x="540" 
 />
    <glyph glyph-name="dagger" unicode="&#x2020;" 
 />
    <glyph glyph-name="daggerdbl" unicode="&#x2021;" horiz-adv-x="540" 
 />
    <glyph glyph-name="bullet" unicode="&#x2022;" 
 />
    <glyph glyph-name="ellipsis" unicode="&#x2026;" 
 />
    <glyph glyph-name="perthousand" unicode="&#x2030;" horiz-adv-x="540" 
 />
    <glyph glyph-name="guilsinglleft" unicode="&#x2039;" horiz-adv-x="540" 
 />
    <glyph glyph-name="guilsinglright" unicode="&#x203a;" horiz-adv-x="540" 
 />
    <glyph glyph-name="fraction" unicode="&#x2044;" horiz-adv-x="2641" 
d="M2363 1452l-598 -1501h-270l600 1501h268z" />
    <glyph glyph-name="Euro" unicode="&#x20ac;" horiz-adv-x="540" 
 />
    <glyph glyph-name="trademark" unicode="&#x2122;" 
 />
    <glyph glyph-name="Omega" unicode="&#x2126;" 
 />
    <glyph glyph-name="partialdiff" unicode="&#x2202;" 
 />
    <glyph glyph-name="Delta" unicode="&#x2206;" 
 />
    <glyph glyph-name="product" unicode="&#x220f;" 
 />
    <glyph glyph-name="summation" unicode="&#x2211;" 
 />
    <glyph glyph-name="minus" unicode="&#x2212;" horiz-adv-x="2299" 
d="M2314 332h-518v186h518v-186z" />
    <glyph glyph-name="radical" unicode="&#x221a;" 
 />
    <glyph glyph-name="infinity" unicode="&#x221e;" 
 />
    <glyph glyph-name="integral" unicode="&#x222b;" 
 />
    <glyph glyph-name="approxequal" unicode="&#x2248;" 
 />
    <glyph glyph-name="notequal" unicode="&#x2260;" 
 />
    <glyph glyph-name="lessequal" unicode="&#x2264;" 
 />
    <glyph glyph-name="greaterequal" unicode="&#x2265;" 
 />
    <glyph glyph-name="lozenge" unicode="&#x25ca;" horiz-adv-x="540" 
 />
    <glyph glyph-name="apple" unicode="&#xf8ff;" horiz-adv-x="540" 
 />
    <glyph glyph-name="fi" unicode="&#xfb01;" horiz-adv-x="540" 
 />
    <glyph glyph-name="fl" unicode="&#xfb02;" horiz-adv-x="540" 
 />
    </font>
</defs>
</svg>
