<?xml version="1.0" standalone="no"?>
<!DOCTYPE svg PUBLIC "-//W3C//DTD SVG 1.1//EN" "http://www.w3.org/Graphics/SVG/1.1/DTD/svg11.dtd" >
<svg xmlns="http://www.w3.org/2000/svg" xmlns:xlink="http://www.w3.org/1999/xlink" version="1.1">
<metadata>
Created by FontForge 20170731 at Sun Jul 12 20:57:22 2020
 By Aleksey,,,
Copyright (c) 2016 by Cristina Pagnotta. All rights reserved.
</metadata>
<defs>
<font id="Audrey-NormalOblique" horiz-adv-x="2048" >
  <font-face 
    font-family="Audrey"
    font-weight="400"
    font-style="oblique"
    font-stretch="normal"
    units-per-em="2048"
    panose-1="0 0 0 0 0 0 0 0 0 0"
    ascent="1434"
    descent="-614"
    x-height="698"
    cap-height="1475"
    bbox="0 -541 2664 1802"
    underline-thickness="102"
    underline-position="-307"
    unicode-range="U+0009-FB02"
  />
<missing-glyph 
 />
    <glyph glyph-name=".notdef" 
 />
    <glyph glyph-name=".null" horiz-adv-x="0" 
 />
    <glyph glyph-name="nonmarkingreturn" horiz-adv-x="682" 
 />
    <glyph glyph-name="HT" unicode="&#x9;" 
 />
    <glyph glyph-name="LF" unicode="&#xa;" 
 />
    <glyph glyph-name="CR" unicode="&#xd;" 
 />
    <glyph glyph-name="DLE" 
 />
    <glyph glyph-name="DC1" 
 />
    <glyph glyph-name="DC2" 
 />
    <glyph glyph-name="DC3" 
 />
    <glyph glyph-name="DC4" 
 />
    <glyph glyph-name="RS" 
 />
    <glyph glyph-name="US" 
 />
    <glyph glyph-name="space" unicode=" " horiz-adv-x="540" 
 />
    <glyph glyph-name="exclam" unicode="!" horiz-adv-x="636" 
d="M346 186q46 0 72 -32q25 -32 16 -80q-9 -46 -49 -80q-48 -33 -88 -33q-48 0 -72 35q-25 37 -14 78q9 46 49 80q43 32 86 32zM369 395l96 744q3 21 37 262h207q-13 -48 -42.5 -148.5t-33.5 -113.5l-219 -744h-45z" />
    <glyph glyph-name="quotedbl" unicode="&#x22;" horiz-adv-x="1232" 
d="M356 836l320 614h131l-377 -614h-74zM870 836l320 614h131l-377 -614h-74z" />
    <glyph glyph-name="numbersign" unicode="#" horiz-adv-x="1566" 
d="M803 -47l796 1427h127l-852 -1427h-71zM268 -47l797 1427h127l-854 -1427h-70zM494 924l1212 51l-64 -119h-1189zM283 438l1212 49l-63 -118h-1190z" />
    <glyph glyph-name="dollar" unicode="$" horiz-adv-x="901" 
d="M981 399q19 -85 -14 -180q-50 -157 -185 -246q-42 -28 -108 -49l-25 -112h-51l20 98q-71 -13 -141 -4q-25 2 -65 16l-23 -110h-53l29 129q-137 69 -187 186l43 39q65 -136 152 -180l125 583q-36 25 -56 45q-58 55 -73 138q-18 78 10 166q40 131 158 208q49 30 88 43
l24 117h53l-22 -102q56 12 111 6q46 -5 94 -25l26 121h52l-31 -143q56 -35 98 -115l-45 -33q-10 23 -24 47q-18 27 -39 45l-105 -487q59 -43 90 -70q56 -50 74 -131zM788 1145q-64 9 -118 -10l-78 -369q41 -38 125 -96q28 -17 55 -37l102 485q-44 24 -86 27zM537 827
q2 -2 6 -7t6 -7l61 289q-69 -54 -90 -123q-27 -84 17 -152zM475 -47q77 -14 156 16l94 439q-31 27 -100 71q-14 9 -82 58l-121 -572q45 -11 53 -12zM817 162q31 93 -12 162q-11 19 -37 45l-78 -369l4 4q92 63 123 158z" />
    <glyph glyph-name="percent" unicode="%" horiz-adv-x="1634" 
d="M545 0h-64l1047 1389h59zM1718 657q48 -108 11 -274q-33 -163 -125 -272q-95 -107 -201 -107q-57 0 -94 25.5t-62 79.5q-47 106 -10 274q37 170 127 274q91 107 201 107q55 0 91.5 -25.5t61.5 -81.5zM1411 47q70 0 115 68q66 102 102 268q43 196 8 281q-23 55 -82 55
q-57 0 -106 -55q-28 -32 -59 -104.5t-52 -176.5q-15 -69 -19.5 -128.5t-1 -95t12.5 -55.5q23 -57 82 -57zM788 1286q48 -108 11 -274q-38 -171 -127 -273q-90 -106 -201 -106q-55 0 -92 25t-62 79q-47 107 -10 275q34 170 127 274q91 107 199 107q107 0 155 -107zM481 676
q68 0 115 67q66 102 102 269q41 201 9 280q-26 56 -82 56q-60 0 -107 -56q-67 -75 -112 -280q-42 -202 -9 -279q26 -57 84 -57z" />
    <glyph glyph-name="ampersand" unicode="&#x26;" horiz-adv-x="1097" 
d="M967 309l184 -346h-207l-117 225q-5 -5 -14.5 -11.5t-13.5 -10.5l-23 -21q-221 -176 -399 -176q-61 0 -129 27q-64 27 -111 80t-65 123q-17 68 2 157q27 133 116 222q106 106 312 225q-51 102 -72.5 174t-7.5 135q21 107 123 193q103 86 229 86q124 0 191 -64
q64 -64 43 -168q-19 -86 -96.5 -163.5t-235.5 -149.5l268 -492l252 221h70v-2zM635 1290q-55 -49 -70 -125q-8 -32 5 -80t30 -85t55 -113q209 108 242 264q7 36 4 76q-6 40 -22 61q-13 21 -45 39q-27 12 -66 12q-75 0 -133 -49zM776 207l29 26l-281 527q-98 -54 -190 -156
q-79 -94 -96 -174q-31 -150 36 -246q74 -110 213 -110q65 0 141.5 35.5t147.5 97.5z" />
    <glyph glyph-name="quotesingle" unicode="'" horiz-adv-x="716" 
d="M352 815l320 615h131l-377 -615h-74z" />
    <glyph glyph-name="parenleft" unicode="(" horiz-adv-x="724" 
d="M434 -383h-55q-202 342 -113 754q79 382 418 721h55q-26 -25 -63.5 -74.5t-87 -133.5t-94 -182.5t-79.5 -226.5t-50 -260.5t1 -289.5t68 -308z" />
    <glyph glyph-name="parenright" unicode=")" horiz-adv-x="827" 
d="M506 1092h53q202 -335 115 -752q-82 -383 -418 -723h-55q26 25 63 74t86.5 133.5t94 183t79.5 226.5t50 260.5t-0.5 289.5t-67.5 308z" />
    <glyph glyph-name="asterisk" unicode="*" horiz-adv-x="1431" 
d="M922 1012l245 -94q5 -2 25 -9.5t41.5 -16t36.5 -13.5l-146 -187q-13 13 -41 41.5t-34 34.5l-175 182l-8 -276q0 -47 -4 -121h-213q15 46 45 121l111 278l-252 -182q-11 -9 -53.5 -39.5t-53.5 -38.5l-67 187q80 25 121 41l284 92l-245 94q-40 15 -105 41l148 184
q13 -13 41 -41.5t34 -34.5l172 -184l9 275q0 42 4 116h213q-24 -65 -45 -116l-111 -273l252 182q10 7 109 76l67 -184q-80 -29 -121 -41z" />
    <glyph glyph-name="plus" unicode="+" horiz-adv-x="962" 
d="M1147 686l-19 -86h-405l-88 -418h-98l88 418h-406l19 86h405l90 418h98l-90 -418h406z" />
    <glyph glyph-name="comma" unicode="," horiz-adv-x="759" 
d="M84 -430l334 584h145l-397 -584h-82z" />
    <glyph glyph-name="hyphen" unicode="-" horiz-adv-x="913" 
d="M281 356l28 136h467l-28 -136h-467z" />
    <glyph glyph-name="period" unicode="." horiz-adv-x="671" 
d="M215 78q9 47 51 78q38 32 86 32q50 0 72 -32q26 -28 16 -78q-10 -52 -51 -80q-39 -33 -86 -33q-49 0 -72 33q-25 35 -16 80z" />
    <glyph glyph-name="slash" unicode="/" horiz-adv-x="1157" 
d="M328 -25h-215l1015 1450h213z" />
    <glyph glyph-name="zero" unicode="0" horiz-adv-x="1390" 
d="M1309 1270q91 -202 20 -533q-68 -328 -246 -530q-92 -107 -186 -157t-203 -50q-107 0 -179 49.5t-122 155.5q-89 203 -18 532q67 330 246 533q92 106 186 155.5t201 49.5q109 0 181.5 -49.5t119.5 -155.5zM713 86q72 0 124.5 30t98.5 99q130 197 199 522q29 137 38 251.5
t2.5 183t-24.5 108.5q-26 57 -64 83t-96 26q-60 0 -109 -26t-100 -83q-54 -61 -112.5 -201.5t-100.5 -341.5q-29 -136 -38 -250.5t-2.5 -183t24.5 -108.5q25 -57 62.5 -83t97.5 -26z" />
    <glyph glyph-name="one" unicode="1" horiz-adv-x="1390" 
d="M836 1475h344l-11 -50l-303 -1425h-12h-147h-50l301 1413h-77h-58l11 49z" />
    <glyph glyph-name="two" unicode="2" horiz-adv-x="1390" 
d="M1178 205l-11 -47l-34 -158h-9h-202h-521h-163l16 72v2l8 28q8 5 49 30.5t58 37t58 39t70 49.5t71.5 55.5t84.5 69.5q238 201 365 360q116 145 153 308q40 181 -30 270q-73 86 -201 86q-104 0 -215 -80q-63 -45 -102 -98l-5 -6l-67 34l6 7q59 68 127 112q156 99 324 99
q174 0 295 -103q119 -104 75 -307q-27 -126 -114 -242q-83 -110 -377 -348q-65 -53 -127 -97.5t-144 -100.5t-104 -72h666z" />
    <glyph glyph-name="three" unicode="3" horiz-adv-x="1390" 
d="M1143 729q76 -114 39 -274q-41 -200 -213 -328q-92 -67 -179.5 -97t-193.5 -30q-96 0 -178 29l-25 10l103 80l12 -8q2 -2 4 -2q46 -27 98 -27q135 0 232 90q100 84 145 287q31 157 -12 229q-47 74 -125 74q-47 0 -111 -39l-18 -12l-41 80l16 10q4 2 16.5 9.5t20.5 10.5
q195 112 266 183q71 74 91 178q22 102 -21 153q-45 54 -131 54q-95 0 -178 -56q-51 -35 -76 -76l-12 -20l-90 63l14 15q21 24 68 61q135 99 321 99q89 0 145.5 -19t100.5 -65q83 -83 59 -189q-18 -92 -104 -172l-6 -6q-109 -101 -226 -166l-28 -18q82 0 130 -27.5t87 -83.5z
" />
    <glyph glyph-name="four" unicode="4" horiz-adv-x="1390" 
d="M1034 563h299l-16 -76h-12h-287l-105 -487h-14h-158h-53l105 487h-164h-348l16 76v2l2 2l848 908h80l-49 -238zM381 563h428l127 598z" />
    <glyph glyph-name="five" unicode="5" horiz-adv-x="1390" 
d="M1139 856q98 -131 57 -332q-49 -226 -223 -374q-173 -150 -428 -150q-104 0 -183 29l-8 4l82 65l4 -4q44 -35 121 -35q144 0 260 107q120 108 172 350q47 219 -12 311q-63 91 -168 91q-144 0 -272 -152l-2 -2h-4h-66l109 510l28 141l4 12l11 48h639l-43 -201h-23h-12
h-125h-410l-86 -412q154 129 301 129q178 0 277 -135z" />
    <glyph glyph-name="six" unicode="6" horiz-adv-x="1390" 
d="M1227 801q36 -44 49 -103t8.5 -110t-18.5 -119q-23 -104 -60 -183t-114 -145q-164 -141 -365 -141q-172 0 -270 104q-97 105 -109 256q-16 156 21 316q70 332 276 567q209 232 477 232q36 0 105 -15l18 -4l-51 -86l-14 6q-31 10 -107 10q-164 0 -274 -137
q-114 -141 -176 -432q0 -2 -1 -6t-1 -6q72 59 137 88q87 41 174 41q186 0 295 -133zM547 483q-21 -98 -12 -196q9 -96 63 -150q56 -53 135 -53q125 0 209 96q88 105 131 303q28 135 17 201q-9 69 -64 115q-51 45 -133 45q-107 0 -205 -76q-97 -79 -141 -285z" />
    <glyph glyph-name="seven" unicode="7" horiz-adv-x="1390" 
d="M1423 1475l-39 -68q-13 -23 -146.5 -257t-263.5 -462.5t-252.5 -440.5t-143.5 -243l-3 -4h-4h-82h-8l4 8q15 27 357.5 614.5t376.5 647.5h-414h-27h-227l31 143l2 12l10 50h829z" />
    <glyph glyph-name="eight" unicode="8" horiz-adv-x="1390" 
d="M1165 668q88 -109 54 -267q-41 -190 -197 -295q-152 -106 -328 -106q-93 0 -160.5 27t-123.5 86q-105 114 -68 282q30 146 145 252q99 89 209 121q-70 33 -123 113q-62 95 -34 229q35 161 172 262q134 103 297 103q147 0 249 -99q104 -101 70 -266q-27 -133 -129 -227
q-79 -76 -176 -113q80 -24 143 -102zM829 1331q-73 -67 -100 -201q-37 -164 -2 -245q34 -78 129 -78q108 0 176 74q75 78 105 231q30 143 -13 213q-42 70 -137 70q-85 0 -158 -64zM647 641q-72 -78 -108 -231q-23 -110 -17 -181q3 -60 53 -104q46 -43 132 -43q109 0 190 63
q85 63 125 252q41 192 -16 258q-54 66 -168 66q-117 0 -191 -80z" />
    <glyph glyph-name="nine" unicode="9" horiz-adv-x="1390" 
d="M1362 1114q15 -146 -21 -315q-71 -335 -276 -566q-208 -233 -477 -233q-120 0 -203 47l-20 12l104 82l10 -16q11 -17 40.5 -26t53 -10t64.5 -1q164 0 274 137q114 141 176 432q0 2 1.5 6.5t1.5 6.5q-74 -61 -138 -88q-87 -41 -176 -41q-184 0 -293 133q-97 120 -51 332
q43 204 189 327q160 142 362 142q173 0 268 -105q96 -104 111 -256zM1161 991q22 102 13 197q-6 89 -62 149q-57 54 -135 54q-126 0 -211 -97q-102 -115 -143 -303q-17 -91 -5 -200q9 -67 66 -115q51 -45 131 -45q111 0 205 76q97 75 141 284z" />
    <glyph glyph-name="colon" unicode=":" horiz-adv-x="649" 
d="M215 78q13 50 51 78q38 32 86 32q50 0 72 -32q26 -28 16 -78q-10 -51 -49 -80q-42 -33 -88 -33q-49 0 -72 33q-25 35 -16 80zM371 803q9 43 47 78q40 34 88 34q45 0 74 -32q25 -36 14 -80q-9 -46 -49 -80q-39 -33 -86 -33q-48 0 -74 33q-23 33 -14 80z" />
    <glyph glyph-name="semicolon" unicode=";" horiz-adv-x="763" 
d="M518 803q9 43 47 78q40 34 88 34q45 0 74 -32q25 -36 14 -80q-9 -46 -49 -80q-39 -33 -86 -33q-48 0 -74 33q-23 33 -14 80zM412 141l-332 -583h80l397 583h-145z" />
    <glyph glyph-name="less" unicode="&#x3c;" horiz-adv-x="540" 
 />
    <glyph glyph-name="equal" unicode="=" horiz-adv-x="2836" 
d="M1665 492l21 98h909l-21 -98h-909zM1735 823l20 99h909l-20 -99h-909z" />
    <glyph glyph-name="greater" unicode="&#x3e;" horiz-adv-x="540" 
 />
    <glyph glyph-name="question" unicode="?" horiz-adv-x="927" 
d="M319 195q48 0 74 -33q25 -37 17 -80t-52 -80q-39 -33 -86 -33q-48 0 -73 35q-24 34 -15 78q9 46 49 80q39 33 86 33zM918 1298q63 -101 26 -278q-34 -155 -119 -229q-107 -93 -221 -93q-47 0 -71 9t-48 38l-100 -348h-47l74 398h92q24 -33 74 -33q80 0 139 80
q55 79 90 239q30 150 -19 217q-53 68 -135 68t-135 -33l-31 41q84 37 185 37q173 0 246 -113z" />
    <glyph glyph-name="at" unicode="@" horiz-adv-x="550" 
 />
    <glyph glyph-name="A" unicode="A" horiz-adv-x="1619" 
d="M573 590h508l-127 618zM1143 270l-53 271h-543l-322 -541h-78l924 1475h43l313 -1475h-231z" />
    <glyph glyph-name="B" unicode="B" horiz-adv-x="1380" 
d="M559 752l-145 -691h184q183 0 274 74q106 87 144 266q40 180 -41 267q-80 86 -324 86q-13 0 -46 -1t-46 -1zM700 1419l-129 -616h54q230 0 333 74q102 74 136 237q23 110 4 176q-20 60 -80 96q-57 35 -219 35q-72 0 -99 -2zM188 0l314 1475h297q299 0 431 -87t95 -260
q-30 -143 -151 -229q-126 -88 -336 -117q245 -18 344 -123q99 -108 65 -264q-30 -139 -133 -239q-103 -97 -237 -127q-131 -29 -349 -29h-340z" />
    <glyph glyph-name="C" unicode="C" horiz-adv-x="1345" 
d="M1341 258l35 -43q-238 -215 -526 -215q-306 0 -463 195q-154 198 -84 516q42 206 174 397q128 186 309 276q187 91 375 91q155 0 275 -66q112 -63 159 -141v-6l-49 -39q-24 53 -63 86q-118 112 -303 112q-224 0 -394 -182q-171 -183 -241 -518q-68 -321 39 -492
q108 -170 321 -170q113 0 246 56q110 48 190 143z" />
    <glyph glyph-name="D" unicode="D" horiz-adv-x="1671" 
d="M408 49h227q187 0 323 53q135 54 248 205q116 152 166 391q41 188 23 332q-14 139 -86 236q-70 90 -172 125q-109 32 -273 32q-92 0 -166 -6zM186 0l314 1475h405q329 0 486 -101q162 -101 213 -268q52 -168 6 -391q-35 -162 -111 -293q-79 -137 -180 -219
q-107 -90 -223 -135q-125 -47 -226 -56q-102 -12 -282 -12h-402z" />
    <glyph glyph-name="E" unicode="E" horiz-adv-x="1173" 
d="M406 51h192h451l-11 -51h-856l80 379l23 102l18 88l115 541l78 365h860l-10 -50h-453h-197l-67 -317l-8 -43l-58 -264h150h276l-10 -51h-270h-156l-39 -181l-6 -32l-12 -56l-21 -102z" />
    <glyph glyph-name="F" unicode="F" horiz-adv-x="987" 
d="M383 0h-213l80 373l22 104l19 88l115 541l77 369h860l-10 -50h-452h-195l-68 -321l-10 -43l-55 -260h147h279l-12 -51h-271h-153l-39 -185l-8 -35l-11 -53l-22 -102z" />
    <glyph glyph-name="G" unicode="G" horiz-adv-x="1622" 
d="M1313 367l55 262h205l-49 -234q-14 -66 -54 -126t-98 -101q-113 -82 -170 -100q-192 -68 -344 -68q-305 0 -465 201q-159 199 -94 510q64 303 307 534q242 230 572 230q286 0 424 -205l-3 -6l-57 -50q-23 48 -51 80q-108 129 -303 129q-201 0 -381 -149
q-181 -149 -260 -529q-80 -381 28 -536q112 -158 324 -158q111 0 207 45q93 40 143 109q42 58 64 162z" />
    <glyph glyph-name="H" unicode="H" horiz-adv-x="1656" 
d="M1518 1475h213l-314 -1475h-213l160 750h-786l-160 -750h-213l313 1475h213l-143 -674h786z" />
    <glyph glyph-name="I" unicode="I" horiz-adv-x="657" 
d="M518 1475h213l-78 -367l-155 -725l-80 -383h-213l82 383l153 725z" />
    <glyph glyph-name="J" unicode="J" horiz-adv-x="1001" 
d="M905 1475h168l-39 -183l-162 -762q-23 -115 -61 -227q-25 -71 -100 -149q-69 -75 -166 -115q-95 -39 -215 -39q-36 0 -63.5 5.5t-42.5 13t-40 22.5l49 31q30 -15 55.5 -23t35.5 -9l10 -1q95 0 180 63q84 65 113 148q40 96 78 280l161 762z" />
    <glyph glyph-name="K" unicode="K" horiz-adv-x="1632" 
d="M1012 242q-10 13 -30.5 39.5t-31.5 40.5l-332 419l-120 -92l-58 -270l-80 -379h-213l82 379l154 725l78 371h213l-78 -371l-82 -383l530 405q1 1 0 3v1l453 345h72l-328 -256q-13 -11 -48.5 -39.5t-57.5 -46.5l-41 -37l-289 -219l430 -558q6 -8 18.5 -21t16.5 -17l-2 -5
q1 -1 0 -3t0 -3l213 -270h-293l-176 244v-2z" />
    <glyph glyph-name="L" unicode="L" horiz-adv-x="1284" 
d="M377 49h813l-10 -49h-1026l82 379l153 725l78 371h213z" />
    <glyph glyph-name="M" unicode="M" horiz-adv-x="1931" 
d="M1479 0l84 393l200 940l-872 -1333h-51l-301 1333l-185 -864l-100 -469h-49l100 475l137 643l76 357h205l283 -1223l796 1223h203l-76 -357l-153 -725l-84 -393h-213z" />
    <glyph glyph-name="N" unicode="N" horiz-adv-x="1562" 
d="M1575 1475h61l-57 -275l-256 -1200h-39l-745 1358l-211 -1000l-70 -321h-49l70 321l161 764l76 353h221l600 -1121l185 863z" />
    <glyph glyph-name="O" unicode="O" horiz-adv-x="1835" 
d="M565 739q-71 -345 29 -514q52 -91 123.5 -131.5t202.5 -40.5q117 0 209 41.5t182 130.5q84 81 134.5 203t90.5 309q25 119 35 205.5t1 166.5t-42 136q-51 91 -129.5 133.5t-206.5 42.5q-123 0 -206 -40t-177 -132q-173 -173 -246 -510zM328 748q71 329 331 528
q138 105 261.5 152t283.5 47t265 -47t200 -150q180 -195 109 -539q-71 -332 -328 -534q-133 -107 -260.5 -156t-296.5 -49q-163 0 -268 49t-195 156q-176 203 -102 543z" />
    <glyph glyph-name="P" unicode="P" horiz-adv-x="1265" 
d="M483 1475h299q215 0 340 -41q110 -32 174 -129q58 -91 31 -228q-27 -120 -98 -209t-182 -135q-87 -39 -361 -39h-158l-69 -325q-6 -29 -16.5 -74.5t-14.5 -71.5l-47 -223h-211l78 369l153 716zM999 862q70 79 95 199q41 182 -31 266q-71 86 -270 86q-59 0 -113 -4
l-141 -666h102q141 0 209 19q88 26 149 100z" />
    <glyph glyph-name="Q" unicode="Q" horiz-adv-x="1812" 
d="M1149 43q84 -38 150.5 -100.5t130.5 -163.5l-109 -27q-46 99 -114.5 165.5t-143.5 100.5q-85 -18 -189 -18q-163 0 -266.5 48.5t-195.5 156.5q-172 202 -101 538q71 329 332 529q137 103 260 150.5t281 47.5q160 0 265 -46.5t200 -149.5q180 -198 106 -537
q-68 -330 -325 -532q-138 -114 -281 -162zM575 223q65 -113 168 -149q2 1 9 3.5t12 2.5q36 8 69.5 11.5t68.5 2.5t52 -2.5t55 -6t42 -5.5q1 0 3 -1t3 -1q123 38 235 145q83 81 133.5 203.5t90.5 308.5q25 118 34.5 204t0.5 166t-42 136q-51 90 -129.5 133t-205.5 43
q-121 0 -204 -40t-177 -132q-173 -173 -244 -508q-74 -341 26 -514z" />
    <glyph glyph-name="R" unicode="R" horiz-adv-x="1466" 
d="M492 1475h321q226 0 330 -35q129 -39 186 -119q59 -86 35 -211q-31 -147 -158 -244q-140 -113 -338 -139q70 -37 106 -68q72 -66 134 -182q9 -17 24 -50.5t53 -156.5t66 -270h-168q-1 20 -6.5 60.5t-21 107.5t-38 136.5t-61.5 141.5t-86.5 127.5t-118 91t-151.5 35.5h-63
l-66 -309l-84 -391h-209l84 391l152 713zM547 750h170q20 0 43.5 3.5t38 7.5t41.5 11.5t34 9.5q51 14 115 66q46 35 82 96q34 56 53 146q34 150 -24 241q-52 82 -322 82h-90z" />
    <glyph glyph-name="S" unicode="S" horiz-adv-x="1243" 
d="M1120 565q21 -93 -14 -207q-57 -176 -213 -280q-153 -99 -350 -78q-101 11 -201 84t-139 170l49 43q57 -119 120 -172t169 -72q141 -21 252 60q105 72 141 180q35 106 -14 184q-45 74 -207 178q-145 94 -207 156q-68 65 -86 156q-22 94 12 190q47 151 180 240
q132 86 291 71q86 -9 154 -47q69 -38 121 -137l-54 -37q-17 38 -28 53q-67 105 -197 117q-121 15 -201 -47q-81 -62 -104 -143q-31 -97 18 -172q47 -72 207 -183q161 -106 217 -157q66 -60 84 -150z" />
    <glyph glyph-name="T" unicode="T" horiz-adv-x="1462" 
d="M1880 1475l-10 -50h-373h-242l-221 -1036l-82 -389h-213l82 389l221 1036h-215h-393l12 50h1434z" />
    <glyph glyph-name="U" unicode="U" horiz-adv-x="1605" 
d="M1632 1475h49l-73 -347l-105 -485q-28 -138 -80 -276q-33 -84 -129 -177q-91 -87 -223 -139q-134 -51 -301 -51q-189 0 -315 66q-116 65 -154 172q-39 120 6 280l43 150l96 452l76 355h209l-76 -355l-96 -458q-59 -266 -59 -338q0 -107 78 -174q85 -76 258 -76
q137 0 254 51q124 51 190 123q80 91 102 155q51 145 74 248l107 496z" />
    <glyph glyph-name="V" unicode="V" horiz-adv-x="1662" 
d="M1724 1475h68l-291 -457l-643 -1018h-67l-254 1141l-9 30q-2 9 -6.5 33.5t-7.5 38.5q-7 42 -14 64l-37 168h215l65 -281l211 -958l502 796q18 28 46 74t32 53z" />
    <glyph glyph-name="W" unicode="W" horiz-adv-x="2455" 
d="M2515 1475h70l-291 -457l-645 -1018h-66l-188 850l-537 -850h-67l-254 1139l-9 28q-3 10 -7.5 36.5t-6.5 35.5q-9 50 -14 64l-37 172h215l65 -281l211 -961q168 265 299 475t179 288l47 77h86l182 -837l502 790q37 63 75 129z" />
    <glyph glyph-name="X" unicode="X" horiz-adv-x="1818" 
d="M1536 170l111 -170h-299l-119 213q-4 7 -15.5 29t-25.5 47.5t-29 50.5l-194 324l-291 -281q-21 -20 -99 -98l-282 -285h-76l299 295q91 92 113 111l309 299l-289 466l-94 150q-3 6 -11.5 17t-11.5 16l-79 121h284l166 -291l4 2l199 -322l309 305l119 119l188 187h72
l-287 -283q-15 -15 -44 -41.5t-36 -32.5l-294 -295l282 -465q27 -45 68.5 -107.5t52.5 -80.5z" />
    <glyph glyph-name="Y" unicode="Y" horiz-adv-x="1642" 
d="M1694 1475h90l-727 -889l-125 -586h-211l121 571l-373 904h268l303 -830z" />
    <glyph glyph-name="Z" unicode="Z" horiz-adv-x="1325" 
d="M713 49h485l-12 -49h-1186l8 43l1237 1382h-457h-382l10 50h1100l-13 -56l-1237 -1370h447z" />
    <glyph glyph-name="bracketleft" unicode="[" horiz-adv-x="1792" 
d="M684 1092h31h-31zM1081 -336l291 1364l8 45h2h134h165l-10 -45h-164l-290 -1364h165l-10 -47h-164h-135h-2z" />
    <glyph glyph-name="backslash" unicode="\" horiz-adv-x="1275" 
d="M1087 -37h-210l-394 1440h211z" />
    <glyph glyph-name="bracketright" unicode="]" horiz-adv-x="757" 
d="M715 1028l-291 -1364l-10 -47h-2h-133h-164l8 47h166l289 1364h-164l10 45h164h133h2z" />
    <glyph glyph-name="asciicircum" unicode="^" horiz-adv-x="2471" 
d="M1761 713h-75l636 762h13l325 -762h-229l-227 506zM924 1475h43h-43z" />
    <glyph glyph-name="underscore" unicode="_" 
 />
    <glyph glyph-name="grave" unicode="`" 
 />
    <glyph glyph-name="a" unicode="a" horiz-adv-x="1030" 
d="M897 651q10 -51 -10 -141l-64 -299l-49 -231h-131l8 30l21 99q-116 -71 -187 -97q-74 -32 -139 -32q-64 0 -103.5 60.5t-27.5 113.5q9 49 31.5 81t75.5 66q104 70 278 135l154 58l8 36q15 76 12 111t-39 61q-35 27 -102 27q-98 0 -166 -41q-9 13 -23 29q94 53 215 53
q114 0 172 -37q54 -37 66 -82zM682 158l61 293l-106 -39q-255 -94 -285 -240q-12 -57 10 -92q24 -35 72 -35q39 0 105 29q52 23 143 84z" />
    <glyph glyph-name="b" unicode="b" horiz-adv-x="1136" 
d="M967 651q70 -101 28 -291q-19 -90 -54.5 -155.5t-98.5 -122.5q-130 -115 -295 -115q-82 0 -135 35q-56 35 -82 100q-3 -14 -29 -135h-129l268 1266h109q2 -2 2 0h18l-123 -584q73 58 146 86q70 27 137 27q158 0 238 -111zM340 150q2 -35 66 -95q45 -45 122 -45
q117 0 205 94q89 95 127 275q35 167 -10 250q-47 86 -154 86q-54 0 -127 -29q-66 -31 -135 -88z" />
    <glyph glyph-name="c" unicode="c" horiz-adv-x="944" 
d="M586 14q94 0 159 45l21 -26q-94 -66 -229 -66q-155 0 -242 107q-84 110 -47 282q37 175 168 285q131 107 286 107q135 0 201 -66l-31 -27q-51 45 -141 45q-132 0 -217 -98q-84 -97 -117 -246q-32 -142 13 -243q46 -99 176 -99z" />
    <glyph glyph-name="d" unicode="d" horiz-adv-x="1165" 
d="M1071 1233h109l-269 -1266h-129q26 121 29 135q-53 -65 -125 -100q-68 -35 -149 -35q-166 0 -246 115q-39 57 -47 124t12 154q38 188 152 291q126 111 284 111q66 0 125 -27q58 -27 111 -86l123 584h18h2zM821 150l94 448q-43 58 -96 88q-56 29 -114 29q-106 0 -189 -86
q-81 -84 -119 -250q-37 -177 11 -275q49 -94 165 -94q77 0 142 45q86 58 106 95z" />
    <glyph glyph-name="e" unicode="e" horiz-adv-x="1015" 
d="M801 123l24 -31q-41 -45 -96 -74q-97 -51 -197 -51q-91 0 -165 47q-72 48 -109 133q-33 81 -8 209q37 173 164 291q130 115 280 115q147 0 205 -88q55 -77 33 -191h-502q-6 -21 -20 -77q-41 -197 -2 -293q42 -97 161 -97q141 0 232 107zM680 723q-163 0 -240 -203h391
q2 12 2.5 29.5t-2 41.5t-13 46.5t-26.5 42t-45 31.5t-67 12z" />
    <glyph glyph-name="f" unicode="f" horiz-adv-x="821" 
d="M905 1264q43 -4 65.5 -15.5t41.5 -36.5l-45 -36q-36 47 -101 47q-59 0 -108 -41q-55 -43 -76 -105q-19 -56 -64 -268l-12 -57h156l-8 -41h-158l-74 -355l-22 -98l-54 -258h-133l56 258l96 453h-141l8 41h141l14 69q17 81 48 176q21 62 79 129q57 66 129 103q87 43 162 35
z" />
    <glyph glyph-name="g" unicode="g" horiz-adv-x="1077" 
d="M903 -102q38 -65 17 -156q-24 -128 -148 -205q-118 -78 -315 -78q-181 0 -275 70q-93 69 -69 174q0 6 2 8h71q-3 -17 -3.5 -34.5t4.5 -39t16 -40.5t33 -37.5t53 -32t78 -21.5t106 -8q140 0 232 56q91 60 108 145q14 64 9 93q-24 111 -267 112q-73 0 -101.5 0.5t-75.5 2.5
t-70 8.5t-36 16.5q-51 42 -39 107q27 126 211 160q-76 53 -112 123q-31 72 -13 155q24 121 140 205q112 86 241 86q82 0 159 -37.5t99 -89.5q32 -85 15 -168q-24 -115 -127 -205q-104 -90 -301 -96q-185 -5 -228 -80q-32 -65 33 -78q57 -13 234 -17.5t200 -10.5
q82 -22 119 -88zM459 455q-25 -126 12 -183q33 -47 121 -47q83 0 135 47q66 60 96 199q30 144 -14 197q-36 43 -117 43q-96 0 -145 -56q-58 -64 -88 -200z" />
    <glyph glyph-name="h" unicode="h" horiz-adv-x="1054" 
d="M961 649q5 -45 -21 -184l-45 -207l-55 -258h-131l55 258l47 225q21 94 18 140q0 46 -34 73q-39 31 -97 31q-73 0 -137 -43q-61 -37 -127 -125l-63 -301l-56 -258h-131l54 258l159 750l56 256h94q6 -3 16 0h21l-135 -635q71 77 147 114q74 39 160 39q92 0 145 -39
q54 -39 60 -94z" />
    <glyph glyph-name="i" unicode="i" horiz-adv-x="602" 
d="M512 1028q-38 0 -61 29q-22 28 -13 69q6 38 41 68q37 29 74 29q38 0 61 -29q22 -31 13 -68q-6 -41 -41 -69q-37 -29 -74 -29zM393 782h111h20l-82 -391l-28 -133l-56 -258h-131l56 258l47 227q1 2 2 6.5t2 6.5z" />
    <glyph glyph-name="j" unicode="j" horiz-adv-x="892" 
d="M819 1028q-42 0 -61 31q-21 27 -15 67q9 39 43 68q34 27 74 27q39 0 60 -27q23 -32 14 -68q-9 -42 -43 -69q-37 -29 -72 -29zM815 784h21l-170 -804q-23 -102 -50 -185q-25 -64 -73 -121q-54 -60 -129 -94q-71 -35 -166 -35q-42 0 -80 9l22 40q12 -10 95 -10q53 0 108 39
q56 40 76 98q28 77 51 191l123 577l62 295h110z" />
    <glyph glyph-name="k" unicode="k" horiz-adv-x="1034" 
d="M991 752l-442 -281l303 -471h-164l-256 395l-45 -28l-22 -109l-56 -258h-133l55 258l177 829l14 70h110h3h20l-158 -739l531 334h63z" />
    <glyph glyph-name="l" unicode="l" horiz-adv-x="569" 
d="M391 258l-53 -258h-133l55 258l158 743l55 263h109q0 -4 4 0h20z" />
    <glyph glyph-name="m" unicode="m" horiz-adv-x="1626" 
d="M369 782h133l-35 -157q76 76 158 118q77 39 161 39q93 0 142 -43q49 -40 55 -125q88 85 170 125q79 43 158 43q86 0 139 -41t53 -92q3 -45 -22 -166l-47 -225l-56 -258h-131l56 258l53 250q16 82 16 115q-3 40 -33 67t-90 27q-63 0 -127 -41q-68 -39 -147 -121l-64 -297
l-53 -258h-133l55 258l43 209q23 108 23 143q3 46 -31 76q-29 33 -90 33q-58 0 -125 -37q-65 -36 -143 -111l-68 -313l-55 -258h-131l55 258l47 225z" />
    <glyph glyph-name="n" unicode="n" horiz-adv-x="1103" 
d="M975 555l-64 -297l-53 -258h-133l55 258l43 209q23 108 23 143q3 46 -31 76q-29 33 -90 33q-58 0 -125 -37q-65 -36 -143 -111l-68 -313l-55 -258h-131l55 258l47 225l64 299h133l-35 -157q76 76 158 118q77 39 161 39q93 0 142 -43q63 -51 55 -125q2 -14 -8 -59z" />
    <glyph glyph-name="o" unicode="o" horiz-adv-x="1140" 
d="M393 362q-38 -184 13 -274q44 -80 151 -80q109 0 186 80q86 90 127 274q38 180 -10 277q-40 82 -151 82q-113 0 -189 -82q-87 -97 -127 -277zM264 367q34 165 166 282q131 113 287 113q157 0 239 -113q81 -119 45 -282q-37 -184 -170 -293q-128 -107 -284 -107
q-152 0 -238 109q-85 111 -45 291z" />
    <glyph glyph-name="p" unicode="p" horiz-adv-x="1142" 
d="M334 725h129l-27 -123q72 62 144 92q76 31 147 31q151 0 231 -109q81 -110 41 -284q-39 -179 -163 -289q-126 -117 -293 -117q-69 0 -127 27q-59 29 -101 82l-59 -281l-53 -254h-129l53 254l143 672zM717 61q95 89 135 279q37 165 -21 248q-57 84 -155 84q-57 0 -125 -33
q-58 -27 -127 -96l-96 -449q39 -61 84 -90q51 -31 108 -31q100 0 197 88z" />
    <glyph glyph-name="q" unicode="q" horiz-adv-x="1173" 
d="M418 61q60 -88 160 -88q56 0 120 31q58 28 123 90l94 449q-39 68 -86 96q-54 33 -110 33q-100 0 -193 -84q-90 -81 -125 -248q-41 -192 17 -279zM954 725h129l-63 -299l-143 -672l-54 -254h-129l54 254l61 281q-64 -53 -137 -82q-68 -27 -137 -27q-167 0 -244 117
q-78 117 -41 289q37 174 162 284q127 109 278 109q73 0 133 -31q61 -30 105 -92z" />
    <glyph glyph-name="r" unicode="r" horiz-adv-x="813" 
d="M741 694q-29 22 -60 24.5t-62.5 -11t-71.5 -43.5q-63 -49 -96 -113q-31 -67 -50 -160l-28 -133l-54 -258h-133l56 258l45 213l65 311h123l-41 -194q57 112 163.5 159t180.5 1z" />
    <glyph glyph-name="s" unicode="s" horiz-adv-x="837" 
d="M195 76l6 2q-1 -1 -3 -2t-3 -2v2zM664 270q6 -66 -21 -131q-37 -94 -121 -141t-174 -29q-94 21 -135 117l37 20q24 -79 112 -98q66 -12 111 21q48 34 70 82q21 59 4 100q-21 44 -98 115q-82 73 -107 137q-24 59 6 135q26 68 105 125q73 55 163 37q85 -18 115 -98l-39 -23
q-24 68 -90 80q-48 12 -94 -14q-46 -27 -64 -70q-18 -49 2 -90q18 -40 97 -107q115 -95 121 -168z" />
    <glyph glyph-name="t" unicode="t" horiz-adv-x="868" 
d="M342 733h107l49 230h129l-49 -230h221l-8 -41h-222l-96 -444q-20 -100 -20 -139q3 -38 26 -58t58 -20q65 0 129 73l24 -18q-41 -59 -100 -88q-64 -31 -117 -31q-64 0 -106 39q-41 38 -41 88q-3 44 26 180l88 418h-106z" />
    <glyph glyph-name="u" unicode="u" horiz-adv-x="1097" 
d="M709 -10l30 149q-70 -85 -151 -129q-79 -43 -166 -43q-73 0 -123 35t-59 82q-11 44 10 145l53 252l53 252h129l-108 -510q-15 -76 -15 -110q3 -36 33 -60q35 -24 80 -24q72 0 143 45q70 44 105 96q33 47 55 143l35 168l53 252h129l-102 -483l-55 -260h-129z" />
    <glyph glyph-name="v" unicode="v" horiz-adv-x="1079" 
d="M1012 733h41l-500 -766h-53l-183 766h142l147 -627z" />
    <glyph glyph-name="w" unicode="w" horiz-adv-x="1636" 
d="M1565 735h41l-500 -766h-53l-125 525l-344 -525h-52l-182 766h139l148 -629l330 506h71l121 -506z" />
    <glyph glyph-name="x" unicode="x" horiz-adv-x="1167" 
d="M715 428l254 -428h-168l-193 326l-348 -326h-63l393 358l-236 394h168l172 -295l322 295h61z" />
    <glyph glyph-name="y" unicode="y" horiz-adv-x="1054" 
d="M1022 698l-797 -1218h-37l291 448l-182 770h137l146 -620l401 620h41z" />
    <glyph glyph-name="z" unicode="z" horiz-adv-x="1019" 
d="M813 0h-659l6 29l643 682h-467l8 41h635l-8 -33l-639 -676h491z" />
    <glyph glyph-name="braceleft" unicode="{" 
 />
    <glyph glyph-name="bar" unicode="|" 
 />
    <glyph glyph-name="braceright" unicode="}" 
 />
    <glyph glyph-name="asciitilde" unicode="~" 
 />
    <glyph glyph-name="DEL" horiz-adv-x="540" 
 />
    <glyph glyph-name="uni00A0" unicode="&#xa0;" 
 />
    <glyph glyph-name="exclamdown" unicode="&#xa1;" 
 />
    <glyph glyph-name="cent" unicode="&#xa2;" 
 />
    <glyph glyph-name="sterling" unicode="&#xa3;" 
 />
    <glyph glyph-name="yen" unicode="&#xa5;" 
 />
    <glyph glyph-name="brokenbar" unicode="&#xa6;" 
 />
    <glyph glyph-name="section" unicode="&#xa7;" 
 />
    <glyph glyph-name="dieresis" unicode="&#xa8;" 
 />
    <glyph glyph-name="copyright" unicode="&#xa9;" 
 />
    <glyph glyph-name="ordfeminine" unicode="&#xaa;" 
 />
    <glyph glyph-name="guillemotleft" unicode="&#xab;" 
 />
    <glyph glyph-name="logicalnot" unicode="&#xac;" 
 />
    <glyph glyph-name="registered" unicode="&#xae;" 
 />
    <glyph glyph-name="degree" unicode="&#xb0;" 
 />
    <glyph glyph-name="plusminus" unicode="&#xb1;" 
 />
    <glyph glyph-name="twosuperior" unicode="&#xb2;" 
 />
    <glyph glyph-name="threesuperior" unicode="&#xb3;" 
 />
    <glyph glyph-name="acute" unicode="&#xb4;" 
 />
    <glyph glyph-name="mu" unicode="&#xb5;" 
 />
    <glyph glyph-name="paragraph" unicode="&#xb6;" 
 />
    <glyph glyph-name="periodcentered" unicode="&#xb7;" horiz-adv-x="540" 
 />
    <glyph glyph-name="onesuperior" unicode="&#xb9;" 
 />
    <glyph glyph-name="ordmasculine" unicode="&#xba;" 
 />
    <glyph glyph-name="guillemotright" unicode="&#xbb;" 
 />
    <glyph glyph-name="onequarter" unicode="&#xbc;" 
 />
    <glyph glyph-name="onehalf" unicode="&#xbd;" 
 />
    <glyph glyph-name="threequarters" unicode="&#xbe;" 
 />
    <glyph glyph-name="questiondown" unicode="&#xbf;" 
 />
    <glyph glyph-name="Agrave" unicode="&#xc0;" horiz-adv-x="1193" 
d="M928 1638l-113 164h105l90 -164h-82zM424 590h510l-127 618zM995 270l-55 271h-541l-323 -541h-76l924 1475h41l313 -1475h-229z" />
    <glyph glyph-name="Aacute" unicode="&#xc1;" horiz-adv-x="1193" 
d="M940 541l55 -271q17 -80 54 -270h229l-313 1475h-41l-924 -1475h76l323 541h541zM934 590h-510l383 618zM1210 1802l-182 -164h-82l160 164h104z" />
    <glyph glyph-name="Acircumflex" unicode="&#xc2;" horiz-adv-x="540" 
 />
    <glyph glyph-name="Atilde" unicode="&#xc3;" horiz-adv-x="540" 
 />
    <glyph glyph-name="Adieresis" unicode="&#xc4;" 
 />
    <glyph glyph-name="Aring" unicode="&#xc5;" 
 />
    <glyph glyph-name="AE" unicode="&#xc6;" 
 />
    <glyph glyph-name="Ccedilla" unicode="&#xc7;" 
 />
    <glyph glyph-name="Egrave" unicode="&#xc8;" horiz-adv-x="1120" 
d="M795 1638l-113 164h104l91 -164h-82zM416 51h-193l70 328l22 102l11 56l8 32l39 181h153h271l10 51h-275h-149l55 264l11 43l67 317h197h450l11 50h-861l-77 -365l-115 -541l-19 -88l-22 -102l-80 -379h856l10 51h-450z" />
    <glyph glyph-name="Eacute" unicode="&#xc9;" horiz-adv-x="1120" 
d="M223 51h193h450l-10 -51h-856l80 379l22 102l19 88l115 541l77 365h861l-11 -50h-450h-197l-67 -317l-11 -43l-55 -264h149h275l-10 -51h-271h-153l-39 -181l-8 -32l-11 -56l-22 -102zM1020 1802l-182 -164h-82l159 164h105z" />
    <glyph glyph-name="Ecircumflex" unicode="&#xca;" horiz-adv-x="540" 
 />
    <glyph glyph-name="Edieresis" unicode="&#xcb;" horiz-adv-x="540" 
 />
    <glyph glyph-name="Igrave" unicode="&#xcc;" horiz-adv-x="540" 
 />
    <glyph glyph-name="Iacute" unicode="&#xcd;" horiz-adv-x="540" 
 />
    <glyph glyph-name="Icircumflex" unicode="&#xce;" horiz-adv-x="540" 
 />
    <glyph glyph-name="Idieresis" unicode="&#xcf;" horiz-adv-x="540" 
 />
    <glyph glyph-name="Eth" unicode="&#xd0;" 
 />
    <glyph glyph-name="Ntilde" unicode="&#xd1;" 
 />
    <glyph glyph-name="Ograve" unicode="&#xd2;" horiz-adv-x="1800" 
d="M1053 1638l-113 164h104l91 -164h-82zM397 739q-73 -340 27 -514q36 -61 75 -96.5t101 -55.5t152 -20q117 0 209 41.5t182 130.5q83 81 134 204t91 308q24 120 33.5 206t1 166t-40.5 136q-52 91 -131 133.5t-207 42.5q-122 0 -206 -40.5t-175 -131.5q-175 -173 -246 -510
zM158 748q71 329 334 528q136 104 260 151.5t282 47.5q161 0 266.5 -47t200.5 -150q180 -198 109 -539q-70 -329 -328 -534q-134 -107 -262 -156t-295 -49q-163 0 -268 49t-197 156q-173 203 -102 543z" />
    <glyph glyph-name="Oacute" unicode="&#xd3;" horiz-adv-x="1800" 
d="M158 748q-71 -340 102 -543q92 -107 197 -156t268 -49q167 0 295 49t262 156q258 205 328 534q71 341 -109 539q-95 103 -200.5 150t-266.5 47q-158 0 -282 -47.5t-260 -151.5q-263 -199 -334 -528zM397 739q71 337 246 510q91 91 175 131.5t206 40.5q128 0 207 -42.5
t131 -133.5q32 -56 40.5 -136t-1 -166t-33.5 -206q-40 -185 -91 -308t-134 -204q-90 -89 -182 -130.5t-209 -41.5q-90 0 -152 20t-101 55.5t-75 96.5q-100 174 -27 514zM1313 1802l-183 -164h-81l159 164h105z" />
    <glyph glyph-name="Ocircumflex" unicode="&#xd4;" horiz-adv-x="540" 
 />
    <glyph glyph-name="Otilde" unicode="&#xd5;" horiz-adv-x="540" 
 />
    <glyph glyph-name="Odieresis" unicode="&#xd6;" 
 />
    <glyph glyph-name="multiply" unicode="&#xd7;" 
 />
    <glyph glyph-name="Oslash" unicode="&#xd8;" 
 />
    <glyph glyph-name="Ugrave" unicode="&#xd9;" horiz-adv-x="1531" 
d="M1014 1638l-113 164h105l90 -164h-82zM1483 1475h-49l-70 -328l-107 -496q-26 -129 -73 -248q-23 -68 -103 -155q-66 -72 -190 -123q-117 -51 -254 -51q-171 0 -256 76q-77 66 -80 174q0 72 59 338l99 458l73 355h-208l-76 -355l-96 -452l-41 -150q-47 -165 -9 -280
q38 -107 156 -172q123 -66 313 -66q167 0 301 51q139 54 224 139q96 93 129 177q51 136 82 276l102 485z" />
    <glyph glyph-name="Uacute" unicode="&#xda;" horiz-adv-x="1531" 
d="M1434 1475h49l-74 -347l-102 -485q-31 -140 -82 -276q-33 -84 -129 -177q-85 -85 -224 -139q-134 -51 -301 -51q-190 0 -313 66q-118 65 -156 172q-38 115 9 280l41 150l96 452l76 355h208l-73 -355l-99 -458q-59 -266 -59 -338q3 -108 80 -174q85 -76 256 -76
q137 0 254 51q124 51 190 123q80 87 103 155q47 119 73 248l107 496zM1210 1802l-182 -164h-82l160 164h104z" />
    <glyph glyph-name="Ucircumflex" unicode="&#xdb;" horiz-adv-x="540" 
 />
    <glyph glyph-name="Udieresis" unicode="&#xdc;" 
 />
    <glyph glyph-name="Yacute" unicode="&#xdd;" 
 />
    <glyph glyph-name="Thorn" unicode="&#xde;" 
 />
    <glyph glyph-name="germandbls" unicode="&#xdf;" 
 />
    <glyph glyph-name="agrave" unicode="&#xe0;" horiz-adv-x="1298" 
d="M893 950l-113 164h105l90 -164h-82zM913 451l-61 -293q-92 -62 -145 -84q-66 -29 -105 -29q-49 0 -70 35q-22 35 -10 92q30 146 285 240zM1067 651q-11 44 -68 82q-55 37 -170 37q-121 0 -215 -53q9 -13 23 -29q68 41 166 41q67 0 102 -27q36 -26 39 -61q3 -38 -14 -111
l-6 -36l-154 -58q-170 -62 -281 -135q-51 -34 -73 -66t-31 -81q-12 -52 27 -113t102 -61q64 0 141 32q75 28 187 97l-23 -99l-6 -30h131l49 231l64 299q18 97 10 141z" />
    <glyph glyph-name="aacute" unicode="&#xe1;" horiz-adv-x="1300" 
d="M1067 651q8 -44 -10 -141l-64 -299l-49 -231h-131l6 30l23 99q-112 -69 -187 -97q-77 -32 -141 -32q-63 0 -102 61t-27 113q9 49 31 81t73 66q111 73 281 135l154 58l6 36q17 73 14 111q-3 35 -39 61q-35 27 -102 27q-98 0 -166 -41q-14 16 -23 29q94 53 215 53
q115 0 170 -37q57 -38 68 -82zM852 158l61 293l-106 -39q-255 -94 -285 -240q-12 -57 10 -92q21 -35 70 -35q39 0 105 29q53 22 145 84zM1092 1114l-183 -164h-82l160 164h105z" />
    <glyph glyph-name="acircumflex" unicode="&#xe2;" horiz-adv-x="540" 
 />
    <glyph glyph-name="atilde" unicode="&#xe3;" horiz-adv-x="540" 
 />
    <glyph glyph-name="adieresis" unicode="&#xe4;" horiz-adv-x="540" 
 />
    <glyph glyph-name="aring" unicode="&#xe5;" horiz-adv-x="540" 
 />
    <glyph glyph-name="ae" unicode="&#xe6;" 
 />
    <glyph glyph-name="ccedilla" unicode="&#xe7;" horiz-adv-x="540" 
 />
    <glyph glyph-name="egrave" unicode="&#xe8;" horiz-adv-x="1026" 
d="M995 950l-112 164h104l90 -164h-82zM942 723q45 0 78 -17t47 -42.5t23 -54.5t6.5 -52.5t-2.5 -36.5h-392q77 203 240 203zM1087 92l-24 31q-91 -107 -232 -107q-119 0 -161 97q-41 101 2 293q14 56 20 77h502q22 114 -33 191q-58 88 -205 88q-150 0 -280 -115
q-127 -118 -164 -291q-25 -128 8 -209q37 -85 109 -133q74 -47 166 -47q99 0 196 51q55 29 96 74z" />
    <glyph glyph-name="eacute" unicode="&#xe9;" horiz-adv-x="1028" 
d="M1063 123l24 -31q-41 -45 -96 -74q-97 -51 -196 -51q-92 0 -166 47q-72 48 -109 133q-33 81 -8 209q37 173 164 291q130 115 280 115q147 0 205 -88q55 -77 33 -191h-502q-6 -21 -20 -77q-43 -192 -2 -293q42 -97 161 -97q141 0 232 107zM942 723q-163 0 -240 -203h392
q0 13 2.5 36.5t-6.5 52.5t-23 54.5t-47 42.5t-78 17zM1214 1114l-182 -164h-82l160 164h104z" />
    <glyph glyph-name="ecircumflex" unicode="&#xea;" horiz-adv-x="540" 
 />
    <glyph glyph-name="edieresis" unicode="&#xeb;" horiz-adv-x="540" 
 />
    <glyph glyph-name="igrave" unicode="&#xec;" horiz-adv-x="913" 
d="M635 950l-94 166l131 -2l57 -164h-94zM604 782h111l-62 -284q0 -2 -1 -6.5t-1 -6.5l-49 -227l-53 -258h-131l53 258l29 133l84 391h20z" />
    <glyph glyph-name="iacute" unicode="&#xed;" horiz-adv-x="958" 
d="M535 782h110h21l-84 -391l-27 -133l-55 -258h-131l55 258l47 227q2 4 2 13zM850 1116l-164 -166h-94l127 164z" />
    <glyph glyph-name="icircumflex" unicode="&#xee;" horiz-adv-x="540" 
 />
    <glyph glyph-name="idieresis" unicode="&#xef;" horiz-adv-x="540" 
 />
    <glyph glyph-name="eth" unicode="&#xf0;" 
 />
    <glyph glyph-name="ntilde" unicode="&#xf1;" horiz-adv-x="540" 
 />
    <glyph glyph-name="ograve" unicode="&#xf2;" horiz-adv-x="1087" 
d="M938 950l-113 164h105l90 -164h-82zM573 362q-38 -184 13 -274q44 -80 151 -80q110 0 187 80q86 90 127 274q38 183 -11 277q-40 82 -151 82q-113 0 -189 -82q-87 -97 -127 -277zM444 367q37 168 166 282q131 113 287 113q158 0 240 -113q81 -115 47 -282
q-40 -185 -172 -293q-128 -107 -283 -107q-154 0 -240 109q-85 111 -45 291z" />
    <glyph glyph-name="oacute" unicode="&#xf3;" horiz-adv-x="1087" 
d="M444 367q-40 -180 45 -291q86 -109 240 -109q155 0 283 107q132 108 172 293q34 167 -47 282q-82 113 -240 113q-156 0 -287 -113q-129 -114 -166 -282zM573 362q40 180 127 277q76 82 189 82q111 0 151 -82q49 -94 11 -277q-41 -184 -127 -274q-77 -80 -187 -80
q-107 0 -151 80q-51 90 -13 274zM1137 1114l-183 -164h-82l160 164h105z" />
    <glyph glyph-name="ocircumflex" unicode="&#xf4;" horiz-adv-x="540" 
 />
    <glyph glyph-name="otilde" unicode="&#xf5;" horiz-adv-x="540" 
 />
    <glyph glyph-name="odieresis" unicode="&#xf6;" horiz-adv-x="540" 
 />
    <glyph glyph-name="divide" unicode="&#xf7;" horiz-adv-x="540" 
 />
    <glyph glyph-name="oslash" unicode="&#xf8;" 
 />
    <glyph glyph-name="ugrave" unicode="&#xf9;" horiz-adv-x="1398" 
d="M918 950l-113 164h104l90 -164h-81zM926 -10l32 149q-74 -85 -153 -129q-79 -43 -164 -43q-73 0 -123 35q-49 32 -61 82q-10 51 10 145l53 252l53 252h129l-108 -510q-14 -71 -14 -110q3 -39 34 -60q30 -24 80 -24q71 0 142 45q72 45 106 96q30 43 53 143l35 168l53 252
h129l-102 -483l-55 -260h-129z" />
    <glyph glyph-name="uacute" unicode="&#xfa;" horiz-adv-x="1400" 
d="M958 139l-32 -149h129l55 260l102 483h-129l-53 -252l-35 -168q-23 -100 -53 -143q-34 -51 -106 -96q-71 -45 -142 -45q-50 0 -80 24q-31 21 -34 60q0 39 14 110l108 510h-129l-53 -252l-53 -252q-20 -94 -10 -145q12 -50 61 -82q50 -35 123 -35q85 0 164 43
q79 44 153 129zM1137 1114l-183 -164h-82l160 164h105z" />
    <glyph glyph-name="ucircumflex" unicode="&#xfb;" 
 />
    <glyph glyph-name="udieresis" unicode="&#xfc;" 
 />
    <glyph glyph-name="yacute" unicode="&#xfd;" 
 />
    <glyph glyph-name="thorn" unicode="&#xfe;" 
 />
    <glyph glyph-name="ydieresis" unicode="&#xff;" horiz-adv-x="540" 
 />
    <glyph glyph-name="Lslash" unicode="&#x141;" 
 />
    <glyph glyph-name="lslash" unicode="&#x142;" 
 />
    <glyph glyph-name="OE" unicode="&#x152;" horiz-adv-x="540" 
 />
    <glyph glyph-name="oe" unicode="&#x153;" horiz-adv-x="540" 
 />
    <glyph glyph-name="Scaron" unicode="&#x160;" 
 />
    <glyph glyph-name="scaron" unicode="&#x161;" 
 />
    <glyph glyph-name="Ydieresis" unicode="&#x178;" horiz-adv-x="540" 
 />
    <glyph glyph-name="Zcaron" unicode="&#x17d;" 
 />
    <glyph glyph-name="zcaron" unicode="&#x17e;" 
 />
    <glyph glyph-name="florin" unicode="&#x192;" 
 />
    <glyph glyph-name="pi" unicode="&#x3c0;" 
 />
    <glyph glyph-name="endash" unicode="&#x2013;" horiz-adv-x="540" 
 />
    <glyph glyph-name="emdash" unicode="&#x2014;" horiz-adv-x="540" 
 />
    <glyph glyph-name="quoteleft" unicode="&#x2018;" horiz-adv-x="466" 
d="M356 836l320 614h131l-377 -614h-74z" />
    <glyph glyph-name="quoteright" unicode="&#x2019;" horiz-adv-x="466" 
d="M356 836l320 614h131l-377 -614h-74z" />
    <glyph glyph-name="quotesinglbase" unicode="&#x201a;" horiz-adv-x="540" 
 />
    <glyph glyph-name="quotedblleft" unicode="&#x201c;" horiz-adv-x="1232" 
d="M356 836l320 614h131l-377 -614h-74zM870 836l320 614h131l-377 -614h-74z" />
    <glyph glyph-name="quotedblright" unicode="&#x201d;" horiz-adv-x="1232" 
d="M356 836l320 614h131l-377 -614h-74zM870 836l320 614h131l-377 -614h-74z" />
    <glyph glyph-name="quotedblbase" unicode="&#x201e;" horiz-adv-x="540" 
 />
    <glyph glyph-name="dagger" unicode="&#x2020;" 
 />
    <glyph glyph-name="daggerdbl" unicode="&#x2021;" horiz-adv-x="540" 
 />
    <glyph glyph-name="bullet" unicode="&#x2022;" 
 />
    <glyph glyph-name="ellipsis" unicode="&#x2026;" 
 />
    <glyph glyph-name="perthousand" unicode="&#x2030;" horiz-adv-x="540" 
 />
    <glyph glyph-name="guilsinglleft" unicode="&#x2039;" horiz-adv-x="540" 
 />
    <glyph glyph-name="guilsinglright" unicode="&#x203a;" horiz-adv-x="540" 
 />
    <glyph glyph-name="fraction" unicode="&#x2044;" horiz-adv-x="2641" 
d="M1743 -25h-215l889 1450h213z" />
    <glyph glyph-name="Euro" unicode="&#x20ac;" horiz-adv-x="540" 
 />
    <glyph glyph-name="trademark" unicode="&#x2122;" 
 />
    <glyph glyph-name="Omega" unicode="&#x2126;" 
 />
    <glyph glyph-name="partialdiff" unicode="&#x2202;" 
 />
    <glyph glyph-name="Delta" unicode="&#x2206;" 
 />
    <glyph glyph-name="product" unicode="&#x220f;" 
 />
    <glyph glyph-name="summation" unicode="&#x2211;" 
 />
    <glyph glyph-name="minus" unicode="&#x2212;" horiz-adv-x="2299" 
d="M1898 356l29 136h467l-29 -136h-467z" />
    <glyph glyph-name="radical" unicode="&#x221a;" 
 />
    <glyph glyph-name="infinity" unicode="&#x221e;" 
 />
    <glyph glyph-name="integral" unicode="&#x222b;" 
 />
    <glyph glyph-name="approxequal" unicode="&#x2248;" 
 />
    <glyph glyph-name="notequal" unicode="&#x2260;" 
 />
    <glyph glyph-name="lessequal" unicode="&#x2264;" 
 />
    <glyph glyph-name="greaterequal" unicode="&#x2265;" 
 />
    <glyph glyph-name="lozenge" unicode="&#x25ca;" horiz-adv-x="540" 
 />
    <glyph glyph-name="apple" unicode="&#xf8ff;" horiz-adv-x="540" 
 />
    <glyph glyph-name="fi" unicode="&#xfb01;" horiz-adv-x="540" 
 />
    <glyph glyph-name="fl" unicode="&#xfb02;" horiz-adv-x="540" 
 />
    </font>
</defs>
</svg>
